<?xml version="1.0" encoding="UTF-8" standalone="no"?>
<!-- Created with Inkscape (http://www.inkscape.org/) -->

<svg
   width="210mm"
   height="206mm"
   viewBox="0 0 210 206"
   version="1.1"
   id="svg5"
   xml:space="preserve"
   inkscape:version="1.2.1 (9c6d41e410, 2022-07-14)"
   sodipodi:docname="film.svg"
   xmlns:inkscape="http://www.inkscape.org/namespaces/inkscape"
   xmlns:sodipodi="http://sodipodi.sourceforge.net/DTD/sodipodi-0.dtd"
   xmlns="http://www.w3.org/2000/svg"
   xmlns:svg="http://www.w3.org/2000/svg"><sodipodi:namedview
     id="namedview7"
     pagecolor="#ffffff"
     bordercolor="#000000"
     borderopacity="0.25"
     inkscape:showpageshadow="2"
     inkscape:pageopacity="0.0"
     inkscape:pagecheckerboard="0"
     inkscape:deskcolor="#d1d1d1"
     inkscape:document-units="mm"
     showgrid="false"
     inkscape:zoom="0.46769781"
     inkscape:cx="520.63532"
     inkscape:cy="423.35028"
     inkscape:window-width="1366"
     inkscape:window-height="705"
     inkscape:window-x="-8"
     inkscape:window-y="-8"
     inkscape:window-maximized="1"
     inkscape:current-layer="layer1" /><defs
     id="defs2" /><g
     inkscape:label="Capa 1"
     inkscape:groupmode="layer"
     id="layer1"><path
       style="fill:#fd004c;stroke-width:0.62944"
       d="M 13.789471,202.56621 C 9.1052483,201.45077 4.7082158,197.95725 3.3054229,194.23647 2.8597674,193.05438 2.6373798,179.06789 2.6373798,152.22134 V 111.97815 H 105.23609 207.83482 v 40.30923 c 0,38.76589 -0.0471,40.40166 -1.23127,42.72277 -1.40162,2.74736 -4.35711,5.44364 -7.58088,6.91597 -1.98259,0.90544 -11.24197,1.01618 -92.52768,1.10656 -51.791322,0.0576 -91.340362,-0.14131 -92.705519,-0.46647 z m 94.199299,-35.25634 c 9.91036,-4.87916 18.01885,-9.0081 18.01885,-9.17546 0,-0.39639 -35.70594,-17.83145 -36.517769,-17.83145 -0.391486,0 -0.619203,6.597 -0.619203,17.93903 0,9.86648 0.247343,17.93905 0.549641,17.93905 0.302298,0 8.658129,-3.99204 18.568481,-8.87117 z M 6.0092832,106.9596 c -3.3573916,-1.38392 -3.3719034,-1.50406 -3.3719034,-27.883649 0,-28.908922 -0.026169,-28.782929 5.9940695,-28.782929 1.9623537,0 3.4839057,1.460108 21.1536567,20.299443 10.471553,11.164694 20.685175,22.045227 22.696929,24.178966 3.210742,3.405421 3.657738,4.18957 3.657738,6.416649 0,1.77409 -0.456703,3.0683 -1.518523,4.30321 l -1.518518,1.76606 -22.872279,0.12913 C 17.650707,107.45748 6.75117,107.26542 6.0092832,106.9596 Z m 66.9062008,-2.41464 c 0.639833,-0.97252 5.072897,-7.487227 9.85126,-14.47712 l 8.687935,-12.708894 h 13.531101 c 10.97971,0 13.43621,0.155206 13.02775,0.823051 -0.27683,0.452674 -4.69416,6.96738 -9.81626,14.47712 l -9.3129,13.654073 H 85.318266 71.752152 Z m 53.197046,1.16814 c 0.11538,-0.33005 4.45853,-6.837561 9.65141,-14.461139 l 9.44159,-13.86105 13.42806,-0.01593 c 8.06942,-0.0095 13.34434,0.218937 13.21824,0.572702 -0.11539,0.323785 -4.45853,6.828368 -9.65141,14.454638 l -9.4416,13.865959 -13.42805,0.0223 c -8.25134,0.0138 -13.34717,-0.20886 -13.21824,-0.5776 z m 54.4372,-1.16814 c 0.63983,-0.97252 5.0729,-7.487227 9.85126,-14.47712 l 8.68794,-12.708894 h 3.11406 c 2.27482,0 3.45334,0.339275 4.37297,1.258882 1.1721,1.172112 1.25886,2.09813 1.25886,13.435404 0,10.997028 -0.11158,12.277438 -1.15107,13.218238 -0.99333,0.89894 -2.94283,1.04172 -14.22422,1.04172 H 179.3864 Z M 46.979047,84.878293 39.479289,77.358946 h 12.421603 c 6.831879,0 12.41004,0.212444 12.395909,0.472082 -0.01404,0.259642 -2.228961,3.643348 -4.921845,7.519347 l -4.896155,7.047268 z M 25.772566,61.150865 13.986284,49.348863 34.555368,43.858139 c 11.313003,-3.019897 20.665919,-5.393897 20.784262,-5.275554 0.118331,0.118355 -2.377295,7.612682 -5.545864,16.654085 l -5.761033,16.438917 -2.286561,0.63513 c -1.257607,0.34932 -2.714228,0.636712 -3.236934,0.638636 -0.522703,0.0019 -6.254204,-5.307387 -12.736672,-11.798488 z m 44.2466,3.189619 c 0.01736,-0.282979 2.637479,-7.851978 5.822321,-16.820005 L 81.632095,31.21497 94.220893,27.860705 c 6.923847,-1.844847 12.766567,-3.288059 12.983837,-3.207135 0.44105,0.164269 -10.585081,31.959648 -11.357324,32.750413 -0.269564,0.276018 -5.667054,1.896795 -11.994462,3.601726 -6.327404,1.704933 -12.035619,3.268493 -12.684931,3.474573 -0.649306,0.206092 -1.16629,0.143168 -1.148847,-0.139789 z M 122.23098,49.911362 c 0,-1.058214 10.95849,-31.508888 11.56625,-32.139471 0.79857,-0.828568 24.89459,-7.390077 25.3749,-6.909762 0.25879,0.258785 -10.75458,32.337326 -11.28395,32.866714 -0.29826,0.298237 -24.03642,6.563074 -24.8704,6.563644 -0.43274,2.98e-4 -0.7868,-0.171215 -0.7868,-0.381125 z m 51.91221,-14.030543 c 0.17842,-0.554992 2.80668,-8.088406 5.84072,-16.740916 l 5.51646,-15.7318397 3.2552,-0.8702498 c 3.67933,-0.9836441 6.13828,-0.6171471 6.8022,1.0138501 1.07583,2.6428655 5.97795,21.4002074 5.98018,22.8824414 0.001,0.898372 -0.49321,2.079479 -1.09904,2.624681 -0.60584,0.545201 -6.84318,2.530237 -13.86076,4.411192 -10.25676,2.749171 -12.69565,3.222008 -12.43496,2.410841 z"
       id="path302" /></g></svg>
