<?xml version="1.0" encoding="UTF-8" standalone="no"?>
<!-- Created with Inkscape (http://www.inkscape.org/) -->

<svg
   width="456mm"
   height="292mm"
   viewBox="0 0 456 292"
   version="1.1"
   id="svg5"
   xml:space="preserve"
   inkscape:version="1.2.1 (9c6d41e410, 2022-07-14)"
   sodipodi:docname="cinta_movie.svg"
   xmlns:inkscape="http://www.inkscape.org/namespaces/inkscape"
   xmlns:sodipodi="http://sodipodi.sourceforge.net/DTD/sodipodi-0.dtd"
   xmlns="http://www.w3.org/2000/svg"
   xmlns:svg="http://www.w3.org/2000/svg"><sodipodi:namedview
     id="namedview7"
     pagecolor="#ffffff"
     bordercolor="#000000"
     borderopacity="0.25"
     inkscape:showpageshadow="2"
     inkscape:pageopacity="0.0"
     inkscape:pagecheckerboard="0"
     inkscape:deskcolor="#d1d1d1"
     inkscape:document-units="mm"
     showgrid="false"
     inkscape:zoom="0.23384891"
     inkscape:cx="806.07604"
     inkscape:cy="183.87941"
     inkscape:window-width="1366"
     inkscape:window-height="705"
     inkscape:window-x="-8"
     inkscape:window-y="-8"
     inkscape:window-maximized="1"
     inkscape:current-layer="layer1" /><defs
     id="defs2"><clipPath
       clipPathUnits="userSpaceOnUse"
       id="clipPath1245"><path
         id="path1247"
         style="fill:#ff0000;fill-opacity:1;fill-rule:nonzero;stroke:none;stroke-width:0.264583"
         d="M 1.9595703,1.3647746 V 324.81636 H 458.26609 c -0.13603,-0.27675 -0.26255,-0.57565 -0.37725,-0.89815 -0.18126,-0.50972 -0.35864,-1.02105 -0.44855,-1.55699 -0.10152,-0.68647 -0.15554,-1.37475 -0.13126,-2.06915 0.11507,-3.28814 1.76927,-4.93305 3.39826,-4.93353 0.84907,0 1.69116,0.44646 2.30529,1.33996 V 1.3647746 Z"
         sodipodi:nodetypes="cccscscccc" /></clipPath></defs><g
     inkscape:label="Capa 1"
     inkscape:groupmode="layer"
     id="layer1"><path
       id="path302"
       clip-path="url(#clipPath1245)"
       style="fill:#000000;stroke-width:0.738977"
       d="m 5.519043,1.3647746 c -3.3441518,0 -3.5393189,0.1088585 -3.5393189,1.9761067 0,1.4460415 1.3877721,3.4076555 5.1728109,7.3111817 2.8450504,2.934113 5.159625,5.619453 5.143355,5.967594 -0.01628,0.348146 -2.3440338,1.697782 -5.1728106,2.998784 -3.9219484,1.803768 -5.1433553,2.724735 -5.1433553,3.87935 0,0.832786 0.1417253,1.514119 0.3147095,1.514119 0.1729832,0 3.0715241,-1.333191 6.4409505,-2.96261 l 6.1262409,-2.96261 5.013131,4.97489 c 2.757343,2.736218 5.013647,5.20719 5.013647,5.490621 0,0.283435 -0.99761,0.734204 -2.216919,1.002006 -1.639895,0.360183 -2.217435,0.908045 -2.217435,2.104781 0,1.35012 -1.497702,2.306261 -9.052161,5.776392 l -9.0526774,4.157886 -0.2180745,4.450891 c -0.2045862,4.168268 -0.1228391,4.425283 1.2929443,4.05505 1.965853,-0.514094 1.9591168,0.963465 -0.0093,2.016931 -3.15736519,1.68977 -1.633832,4.386955 9.1265746,16.15767 6.435993,7.040274 10.907135,11.32867 12.133627,11.636499 1.525983,0.382993 4.53741,-0.807568 14.051338,-5.554183 6.659963,-3.322736 12.403379,-5.859151 12.763046,-5.636865 0.359662,0.222282 2.895639,3.63878 5.635315,7.592301 14.35139,20.709971 28.95962,37.42615 35.379752,40.48487 1.703322,0.81152 4.571824,1.41362 6.769096,1.42162 4.395481,0.0156 2.493671,1.20167 34.854201,-21.732528 l 20.19308,-14.311271 10.53683,0.875399 c 5.79534,0.481355 14.10041,1.680323 18.45572,2.664437 33.3735,7.541015 92.70608,44.049553 175.22289,107.818223 l 17.73536,13.70614 h 0.009 c 45.51518,39.51155 68.37469,65.86308 79.34296,83.36339 v -59.79945 c -6.10072,-6.45358 -14.58505,-14.19886 -26.37978,-23.52415 h 0.0196 l -0.38602,-0.28783 c -1.56504,-1.2346 -3.17431,-2.4906 -4.85552,-3.78014 -1.85398,-1.42204 -3.56605,-2.63683 -5.17281,-3.70416 l -10.3544,-7.7277 c -11.42267,-8.52497 -20.76876,-15.98914 -20.76876,-16.5871 0,-0.59796 6.59564,-12.6611 14.65647,-26.80663 8.06085,-14.14554 15.8864,-27.93213 17.39015,-30.63689 1.50374,-2.70476 3.21546,-5.31748 3.8039,-5.80585 1.22718,-1.01846 1.87995,-0.67592 18.70429,9.80664 5.82201,3.62749 12.69657,7.84321 12.94324,7.59655 0.24667,-0.24667 0.45994,-2.14787 0.56025,-3.74945 0.13627,-2.1756 0.36381,-3.15898 -0.27996,-4.32003 -0.34909,-0.62958 -4.97517,-1.41904 -6.3423,-2.55531 l -2.48564,-2.06551 1.60818,-3.15278 c 0.89402,-1.75246 1.99785,-2.99266 2.48563,-2.79259 0.48259,0.19794 4.91135,2.52965 4.91135,2.52965 0.32341,-1.63157 0.18047,-2.07601 0.18047,-3.89608 0,-2.77262 -0.26019,-1.32772 -27.492,-16.970435 C 404.75112,79.805527 368.85051,61.309421 351.8855,53.967765 308.51308,35.19824 280.02899,27.897641 254.34055,28.966707 c -14.7359,0.61326 -29.51923,2.931528 -41.013,6.431649 -8.2892,2.524265 -16.27805,5.979202 -15.7608,6.816122 0.30119,0.487318 0.0273,0.608699 -0.72398,0.320393 -0.81504,-0.312754 -9.15791,4.820353 -25.61601,15.761312 -13.42394,8.923912 -24.4073,16.411604 -24.4073,16.639295 0,0.56079 -0.69478,1.006643 21.73924,-13.940751 10.94046,-7.289415 20.98038,-13.708673 22.3113,-14.264763 3.41367,-1.426319 18.10895,-5.62139 18.46038,-5.269962 0.16034,0.160338 -9.5674,7.044011 -21.61677,15.297257 l -21.90823,15.006319 -7.46052,1.297596 c -4.10351,0.713629 -8.3416,1.645828 -9.41752,2.071708 -1.0759,0.425883 -2.14864,0.581932 -2.38383,0.346749 -0.23519,-0.235191 -0.94539,0.0025 -1.57872,0.528133 -1.82842,1.517474 -4.25641,-0.25831 -11.62823,-8.504391 -6.37757,-7.133958 -10.19394,-12.060479 -27.4252,-35.40404 C 93.517936,15.309624 86.180473,8.0155314 81.683903,8.0155314 c -1.155426,0 -6.675562,1.8004515 -12.266952,4.0007896 -25.049182,9.857403 -35.098348,13.734562 -35.596793,13.734562 -0.295161,0 -5.987569,-5.486864 -12.649357,-12.193054 L 9.0583618,1.3647746 Z m 0.9141561,1.5875 C 6.8490493,2.9510693 7.2836509,3.018402 7.6863525,3.1729329 8.7764231,3.5912324 8.8026498,3.7598008 7.8708374,4.3490885 6.442616,5.2523099 5.1338206,5.2390592 4.563029,4.3154989 4.1065679,3.57693 5.1856474,2.9558905 6.4331991,2.9522746 Z M 10.56473,6.2270101 c 0.354918,0.040827 0.658299,0.2418253 0.963249,0.6092651 0.640108,0.7712853 0.557632,1.1132179 -0.352434,1.4624431 C 8.1481914,9.4604232 6.5811761,8.0296827 9.2919393,6.5789266 9.8030942,6.305365 10.209809,6.1861826 10.56473,6.2270101 Z m 69.212829,2.5652181 c 0.353215,0 0.453336,0.2336271 0.164331,0.7012492 -0.251196,0.4064358 -1.019079,0.7338046 -1.706355,0.7276046 -1.076886,-0.0098 -1.096343,-0.110268 -0.141077,-0.7276046 0.723591,-0.4676221 1.32989,-0.7012492 1.683101,-0.7012492 z M 14.187248,9.9673503 c 0.343907,0.00446 0.628057,0.1085507 0.774629,0.3457157 0.279956,0.452974 0.05059,1.113872 -0.509529,1.468644 -1.360244,0.861556 -2.865975,0.837585 -2.865975,-0.04547 0,-0.896926 1.569148,-1.7822669 2.600875,-1.7688847 z M 83.470357,10.81381 c 0.21491,0.02208 0.396393,0.07162 0.529684,0.153996 0.568026,0.351058 0.02458,0.849279 -1.510502,1.384412 -2.858492,0.996473 -2.736545,0.987242 -3.197221,0.241845 -0.457852,-0.740813 2.67368,-1.934781 4.178039,-1.780253 z m -10.886674,1.582333 c 0.291628,-0.0252 0.53444,-0.02118 0.742591,0.0072 0.237883,0.03251 0.430458,0.09746 0.598929,0.187586 2.033212,1.087638 10.081039,8.747979 10.081039,9.595796 0,0.769208 0.359061,0.624898 -20.949626,8.449097 -9.286982,3.410027 -16.935845,6.186376 -16.996895,6.170166 -0.4542,-0.120568 -9.959735,-10.689651 -9.777698,-10.871688 0.128226,-0.128225 8.294121,-3.373235 18.146696,-7.211446 11.680179,-4.550181 16.113576,-6.150321 18.154964,-6.326745 z m -55.168725,1.15135 c 0.435973,-0.0094 0.828323,0.09039 1.080037,0.342098 0.624956,0.62496 0.557785,1.015717 -0.264066,1.535307 -1.420322,0.897964 -2.747462,0.905001 -3.295923,0.01757 -0.527941,-0.854222 1.172027,-1.866807 2.479952,-1.894975 z m 68.776163,0.623735 c 2.069533,-0.168246 2.72223,1.090794 0.473873,1.945618 -2.385888,0.907114 -2.281759,0.897371 -2.905249,0.273885 -0.934946,-0.934942 -0.485969,-1.565766 1.461927,-2.054655 0.349145,-0.08763 0.673804,-0.140813 0.969449,-0.164848 z m -64.610526,3.009119 c 0.181686,0.01949 0.344895,0.06799 0.47904,0.150895 0.567677,0.350844 0.398931,0.835679 -0.526066,1.512052 -1.60908,1.176589 -2.314008,1.24818 -2.903698,0.294039 -0.501173,-0.810911 1.678924,-2.093428 2.950724,-1.956986 z m 68.860913,0.88315 c 1.409139,-0.06874 2.325031,0.722791 1.28726,1.692403 -1.049056,0.980163 -3.69464,1.648188 -4.26589,1.076937 -0.894116,-0.894116 -0.536699,-1.479028 1.459343,-2.388485 0.525329,-0.239358 1.049573,-0.357942 1.519287,-0.380855 z m -66.207845,2.69906 c 0.802465,-0.03847 1.473654,0.281871 1.487248,0.887284 0.0087,0.386315 -0.663368,0.953841 -1.493449,1.260905 -1.781887,0.659166 -2.974939,-0.704248 -1.466061,-1.67535 0.462064,-0.297377 0.990781,-0.449759 1.472262,-0.472839 z m 70.064974,2.808614 c 1.194922,-0.08016 2.270146,0.274116 2.270146,0.984953 0,0.562249 -0.747945,1.223059 -1.662431,1.468127 -2.300602,0.616541 -2.612567,0.581577 -3.192053,-0.35605 -0.27928,-0.451879 -0.04956,-1.111809 0.510563,-1.466577 0.596486,-0.37781 1.356823,-0.582356 2.073775,-0.630453 z m -65.771696,0.775147 c 0.596063,0.02724 0.800171,0.285653 0.634587,0.788065 -0.178714,0.542248 -1.083849,1.09719 -2.011764,1.233 -1.14634,0.167778 -1.582974,-0.06909 -1.362191,-0.738973 0.178715,-0.542247 1.083849,-1.09719 2.011764,-1.233 0.286582,-0.04194 0.528915,-0.05817 0.727604,-0.04909 z m 58.065706,1.284676 2.22157,2.561084 c 3.311938,3.818133 10.944502,14.567639 10.593152,14.918986 -0.16816,0.168148 -8.705559,3.64677 -18.971969,7.730277 -10.266416,4.083508 -18.800134,7.42487 -18.9637,7.42487 -0.836846,0 -12.945096,-18.016661 -12.430766,-18.496545 0.331523,-0.309321 8.916493,-3.617049 19.077389,-7.350456 z m -55.79246,2.385384 c 0.985298,-0.0033 0.985298,0.0663 0,0.623734 -0.609653,0.344914 -1.94032,0.847391 -2.956409,1.116728 l -1.847432,0.489893 1.847432,-1.113111 c 1.016089,-0.612205 2.346756,-1.115144 2.956409,-1.117244 z m 68.359135,0.438733 c 0.46589,0.04372 0.805474,0.261102 1.139468,0.663525 0.69614,0.838795 0.47959,1.188413 -1.111046,1.793172 -2.317742,0.881204 -2.936858,0.925437 -3.603914,0.258382 -0.941666,-0.941666 -0.480522,-1.584191 1.67845,-2.336808 0.838681,-0.292367 1.431155,-0.421995 1.897042,-0.378271 z M 33.86615,29.445748 c 1.531461,0 0.416917,1.407098 -1.698604,2.144572 -2.827091,0.985528 -3.584795,1.016194 -3.584795,0.144694 0,-0.618132 3.856865,-2.289266 5.283399,-2.289266 z m 230.25675,1.477946 c 2.36851,0 2.43878,0.810848 0.23099,2.668571 -2.05682,1.7307 -5.94899,2.435404 -5.94899,1.076937 0,-1.053383 4.10975,-3.745508 5.718,-3.745508 z m -10.52133,0.05323 h 2.21692 l -2.21692,1.81746 c -1.26117,1.033799 -3.17262,1.816943 -4.43383,1.816943 h -2.21692 l 2.21692,-1.816943 c 1.26121,-1.033801 3.17266,-1.81746 4.43383,-1.81746 z m -8.27546,0.153479 c 0.16586,0.02022 0.29364,0.06859 0.37414,0.147794 0.125,0.122989 -0.70638,0.876373 -1.84743,1.674317 -1.14111,0.797939 -3.07242,1.669371 -4.29173,1.936832 l -2.21692,0.486275 2.14871,-1.792655 c 1.65009,-1.376498 4.67218,-2.594134 5.83323,-2.452563 z m -10.32547,1.27124 c 1.28641,0 1.24669,0.147771 -0.38654,1.432471 -1.00138,0.787676 -2.79185,1.658336 -3.97908,1.934765 l -2.15853,0.502295 2.54507,-1.934766 c 1.39988,-1.0641 3.19036,-1.934765 3.97908,-1.934765 z m 40.03994,0.232027 c 0.37498,0.01028 0.77055,0.06516 1.20561,0.160714 l 2.30425,0.506429 -2.12855,1.740979 c -2.10319,1.719969 -6.9324,2.489947 -6.9324,1.105359 0,-0.378761 1.002,-1.402011 2.22622,-2.273763 1.26068,-0.897671 2.1999,-1.270565 3.32487,-1.239718 z M 36.906274,32.67088 c 0.241336,-0.0013 0.440111,0.03566 0.577226,0.120406 1.224661,0.75688 0.770612,1.650901 -1.072803,2.113566 -0.978332,0.245546 -2.274657,0.637055 -2.880961,0.869715 -0.606299,0.232656 -1.32632,0.06077 -1.599902,-0.381889 -0.499785,-0.808666 3.2871,-2.712574 4.97644,-2.721798 z m 65.763946,1.030428 c 0.53788,0.04019 1.00868,0.210849 1.29088,0.550871 0.64219,0.773779 0.495,1.183108 -0.64493,1.793172 -2.03335,1.088239 -3.556919,0.989468 -4.036959,-0.261483 -0.442204,-1.152401 1.777379,-2.203119 3.391009,-2.08256 z m 123.56868,0.181901 c 1.40078,-0.0035 1.39684,0.03968 -0.11058,1.09554 -0.86275,0.604297 -2.51649,1.436239 -3.67471,1.848983 l -2.10582,0.750342 2.21692,-1.845365 c 1.21931,-1.015022 2.87249,-1.8475 3.67419,-1.8495 z m 60.51207,1.080554 c 0.36862,-1.82e-4 0.7537,0.04335 1.16996,0.126608 1.24309,0.248613 2.25981,0.592902 2.25981,0.764811 0,0.171909 -0.91422,1.117414 -2.03192,2.101164 -2.07138,1.823129 -2.26853,1.873004 -5.17281,1.313614 -2.21003,-0.425666 -2.0966,-1.096685 0.51108,-3.024621 1.20103,-0.887954 2.15804,-1.28103 3.26388,-1.281576 z m -67.99636,0.489376 c 0.064,0.0068 0.1122,0.02488 0.14262,0.05529 0.21346,0.213474 -0.37043,0.873607 -1.29759,1.467094 -2.27844,1.458441 -4.27209,2.150687 -4.27209,1.483113 0,-0.697966 4.46757,-3.108022 5.42706,-3.005501 z M 26.859342,36.33525 c 0.486438,0.02306 0.933305,0.153507 1.206645,0.426847 0.590527,0.590528 0.58671,0.812354 -0.01395,0.812354 -0.454483,0 -1.318514,0.189202 -1.920297,0.420129 -0.601782,0.230927 -1.299027,0.08862 -1.549259,-0.31626 -0.407844,-0.659901 0.67538,-1.232428 1.78232,-1.331701 0.166041,-0.01489 0.332398,-0.01905 0.494543,-0.01137 z m 13.212631,0.500228 c 1.991007,0 1.092935,2.066031 -1.253671,2.884061 -1.279955,0.446198 -2.388068,0.810804 -2.462898,0.810804 -0.338805,0 -1.121379,-1.034163 -1.121379,-1.48208 0,-0.640078 3.438207,-2.212785 4.837948,-2.212785 z m 171.400387,0.207739 c 0.0606,5e-4 0.10465,0.01266 0.12971,0.03772 0.22768,0.227679 -0.70443,1.095828 -2.07119,1.929081 -2.39277,1.458766 -3.59358,1.86349 -3.59358,1.211296 0,-0.584264 4.62642,-3.185601 5.53506,-3.178101 z M 20.431311,37.574451 c 0.280596,0 1.069321,2.577421 1.752865,5.727299 0.683541,3.149878 1.423497,6.394942 1.643827,7.211446 0.332765,1.233172 -0.422085,1.89037 -4.456576,3.879866 -2.671309,1.317284 -4.942117,2.395203 -5.046203,2.395203 -0.541086,0 -11.1070651,-11.090459 -10.8272463,-11.364681 0.514151,-0.503865 16.3604453,-7.849133 16.9333333,-7.849133 z m 221.963199,0.152445 c 1.66639,0.02679 2.58885,0.156402 2.33939,0.409278 -0.79679,0.80768 -39.74565,29.606566 -43.88776,32.450732 -1.37764,0.945942 -2.87405,1.670624 -3.32538,1.610754 -6.11393,-0.811007 -15.3913,-1.207189 -20.40341,-0.871264 -4.58606,0.307369 -6.07409,0.199963 -5.51387,-0.398942 0.80531,-0.860922 18.38599,-13.176477 34.70331,-24.309628 9.45375,-6.450212 9.70715,-6.568353 15.88843,-7.418152 5.9343,-0.815834 13.60145,-1.378234 18.30069,-1.46606 0.7049,-0.01317 1.34313,-0.01567 1.8986,-0.0067 z m 56.25393,0.285254 c 0.51191,-0.01621 1.0626,0.128226 1.81694,0.391191 1.25287,0.436747 2.27841,0.943593 2.27841,1.126546 0,0.182954 -0.91473,1.137566 -2.03243,2.121317 -2.31661,2.038972 -2.73635,2.105048 -5.55573,0.877983 l -2.04587,-0.890385 2.53886,-2.014864 c 1.40135,-1.112118 2.14663,-1.584772 2.99982,-1.611788 z m -43.3095,0.302307 c 8.26954,0.0024 36.31974,6.720547 36.31974,8.698694 0,0.334137 -10.02878,9.071521 -22.28649,19.416386 -12.25771,10.344863 -22.99052,19.196131 -23.85023,19.669084 -1.31922,0.725753 -2.7708,0.342877 -9.30434,-2.455148 -8.2317,-3.525289 -23.26519,-8.707605 -27.6443,-9.529134 -1.44965,-0.271956 -2.62718,-0.706753 -2.61638,-0.966349 0.0108,-0.259595 10.3537,-8.203556 22.98361,-17.653186 22.2682,-16.660935 23.06718,-17.181308 26.39839,-17.180347 z m -50.60053,0.863513 c 0.0578,-0.003 0.0991,0.0061 0.12144,0.02842 0.17729,0.177294 -1.00448,1.068045 -2.62568,1.979208 -1.6212,0.911163 -2.94763,1.496255 -2.94763,1.300179 0,-0.531745 4.58461,-3.26278 5.45187,-3.307809 z m -98.90094,0.04444 c 1.0772,-0.01939 2.12328,0.361792 2.34611,1.039213 0.15191,0.461848 -0.75145,1.198166 -2.00763,1.636076 -1.88494,0.657088 -2.36182,0.594065 -2.728,-0.360185 -0.24404,-0.635946 0.0203,-1.456949 0.58756,-1.824695 0.498,-0.322833 1.15563,-0.478775 1.80196,-0.490409 z m -76.201036,0.322461 c 0.326311,0.03323 0.42478,0.261703 0.42478,0.698665 0,0.584411 -0.853459,1.386976 -1.896008,1.783354 -2.421205,0.920539 -2.538346,0.910065 -2.538346,-0.225826 0,-0.520546 0.997613,-1.323115 2.216918,-1.783354 0.911684,-0.344119 1.466344,-0.50607 1.792656,-0.472839 z M 311.9546,42.10389 c 0.59054,0.06292 1.25896,0.329502 2.22571,0.769979 l 1.8991,0.86558 -2.00297,2.090312 c -2.1694,2.264347 -2.54954,2.347724 -5.60586,1.231449 -2.57182,-0.939307 -2.54922,-1.436645 0.15503,-3.435966 1.57623,-1.165385 2.34476,-1.626221 3.32899,-1.521354 z M 44.005066,42.3354 c 2.012479,-0.02386 2.411842,1.271206 -0.307992,2.510441 -2.124325,0.967912 -3.55096,1.089581 -4.275708,0.364836 -0.929894,-0.929893 -0.488409,-1.428994 2.089279,-2.361096 0.973492,-0.352021 1.823596,-0.506227 2.494421,-0.514181 z m 151.895124,0.747242 c 0.17128,0.03446 0.20145,0.176748 0.0558,0.412378 -0.24831,0.401777 -0.76425,0.730188 -1.1467,0.730188 -1.06297,0 -0.82857,-0.529348 0.45165,-1.02061 0.16439,-0.06309 0.30596,-0.102561 0.4222,-0.119889 0.0872,-0.013 0.15994,-0.01352 0.21704,-0.0021 z M 30.382125,44.225208 c 1.77125,0 1.376747,1.140714 -0.725537,2.098579 -2.292399,1.044486 -3.290755,1.088437 -3.290755,0.144694 0,-0.87701 2.446071,-2.243273 4.016292,-2.243273 z m 80.032845,0.518314 c 1.84802,0.151427 1.91631,1.350441 -0.19069,2.310453 -2.42231,1.103672 -2.52962,1.094169 -3.05459,-0.273885 -0.5674,-1.47861 -0.13991,-1.849612 2.34559,-2.033984 0.3355,-0.02489 0.63568,-0.0242 0.89969,-0.0026 z m -74.700871,1.826762 c 0.619061,0.172077 3.068019,4.684561 2.751253,5.197099 -0.941171,1.522844 -2.358351,0.366282 -2.676322,-2.184363 -0.190002,-1.524132 -0.267956,-2.86825 -0.173116,-2.986898 0.02365,-0.02958 0.05691,-0.03731 0.09819,-0.02584 z m 66.063151,0.61495 c 0.89071,-0.0028 9.67443,11.017934 12.6969,15.93081 0.36903,0.599857 -5.10686,3.498332 -17.364315,9.19117 -9.84676,4.573226 -18.284304,8.461172 -18.74976,8.639783 C 77.580479,81.246164 65.152328,64.788185 64.646183,62.786348 64.424864,61.911018 99.455086,47.192634 101.77725,47.185234 Z m 223.44631,0.217041 c 0.36012,0.0039 0.74058,0.0549 1.16117,0.147277 3.18362,0.699239 3.50089,1.852873 1.04903,3.814755 -2.35344,1.883121 -3.5118,2.041857 -6.03116,0.826823 -2.10863,-1.016969 -2.05723,-1.308027 0.5979,-3.405477 1.24597,-0.984263 2.1427,-1.395199 3.22306,-1.383378 z m -277.143807,0.08837 c 0.222024,-0.0053 0.391205,0.02007 0.488342,0.0801 1.154632,0.7136 0.803818,2.366327 -0.587044,2.766239 -0.711265,0.204511 -1.821918,0.590519 -2.468067,0.858346 -0.674865,0.279729 -1.577893,0.0013 -2.122351,-0.654741 -0.811521,-0.977823 -0.558171,-1.304996 1.76165,-2.274279 1.117612,-0.466971 2.261387,-0.759768 2.92747,-0.775665 z M 31.773254,47.98984 c 0.419538,-0.02691 0.504879,0.270577 0.504879,0.876949 0,1.141299 -4.261608,2.886384 -4.824512,1.97559 -0.218261,-0.35316 0.595228,-1.155359 1.807642,-1.78232 1.338612,-0.692225 2.092457,-1.043312 2.511991,-1.070219 z m 82.336576,1.926497 c 1.84805,0.151426 1.91632,1.350441 -0.19069,2.310453 -2.42226,1.103673 -2.52962,1.094169 -3.05459,-0.273885 -0.5674,-1.478609 -0.13988,-1.849099 2.34559,-2.033467 0.3355,-0.02489 0.63568,-0.02473 0.89969,-0.0031 z m 187.89086,0.221175 c 1.66899,0 21.72402,8.056704 32.14946,12.915491 11.81227,5.505138 13.671,6.510038 13.671,7.38973 0,0.870189 -2.2216,3.355756 -27.91923,31.238397 -8.70911,9.44963 -16.38795,17.18087 -17.06407,17.18087 -0.67611,0 -2.38709,-0.77182 -3.80236,-1.71515 -4.2947,-2.86256 -26.40093,-15.57726 -35.75699,-20.566178 -4.83868,-2.580119 -8.80643,-5.023726 -8.81703,-5.430159 -0.033,-1.256797 46.04944,-41.013001 47.53922,-41.013001 z m 36.38951,2.405021 c 0.62176,-0.0661 1.29077,0.237126 2.57503,0.849561 l 2.62775,1.253153 -2.08876,2.179712 c -2.21978,2.31694 -3.39365,2.564432 -6.06113,1.277958 -2.20017,-1.061099 -2.04375,-2.057055 0.65733,-4.193542 1.09385,-0.865237 1.66802,-1.300747 2.28978,-1.366842 z m -305.815961,0.09715 c 0.158252,0.0078 0.28023,0.04458 0.352433,0.116789 0.251667,0.251662 -0.187861,0.928913 -0.976167,1.505334 -1.588511,1.161547 -3.367754,1.387694 -3.367754,0.427881 0,-0.730389 2.883725,-2.104721 3.991488,-2.050004 z m 18.73374,0.627352 c 1.513578,-0.01278 2.736498,1.263258 1.792139,2.207617 -1.078809,1.078809 -5.112777,1.48126 -5.678206,0.566374 -0.614105,-0.99364 0.569713,-1.979378 3.225126,-2.685108 0.222613,-0.05916 0.444719,-0.08706 0.660941,-0.08888 z m -11.252543,0.56534 c 0.864517,0 6.703123,7.958681 6.182052,8.426876 -0.158546,0.142456 -1.68863,0.964965 -3.399793,1.827795 -1.71116,0.86283 -3.420417,1.568897 -3.798217,1.568897 -0.377803,0 -1.023209,-2.244885 -1.434538,-4.988326 -0.641149,-4.276251 -0.580206,-5.119887 0.428914,-5.911784 0.647407,-0.508047 1.557169,-0.923458 2.021582,-0.923458 z m 78.438104,0.387057 c 0.36252,0.04253 0.55582,0.302972 0.74673,0.800467 0.24874,0.648206 -0.012,1.472223 -0.5793,1.831413 -1.41461,0.895749 -3.42907,0.839144 -4.01732,-0.112654 -0.56059,-0.907049 -0.6198,-0.849886 2.08721,-2.013314 0.86835,-0.373208 1.40016,-0.54845 1.76268,-0.505912 z m -111.6965389,0.0863 c 0.343909,0.0045 0.6285715,0.109071 0.7751465,0.346232 0.2799548,0.452977 0.050585,1.113875 -0.5095296,1.468644 -1.3602424,0.861561 -2.8659749,0.837586 -2.8659749,-0.04547 0,-0.896922 1.5686318,-1.782783 2.600358,-1.769401 z M 24.741642,54.623542 25.98446,59.955 c 0.683434,2.932198 1.368878,5.741703 1.523422,6.243546 0.154544,0.501847 -0.316177,1.232089 -1.045931,1.62264 -1.085929,0.581173 -2.172821,-0.143389 -5.986198,-3.990971 l -4.659147,-4.701005 4.462776,-2.252575 z m 8.57157,1.711007 c 0.158253,0.0078 0.28023,0.04458 0.352433,0.116789 0.251666,0.251663 -0.187862,0.929426 -0.976167,1.505851 -1.588512,1.161547 -3.367237,1.387178 -3.367237,0.427364 0,-0.730389 2.883207,-2.104721 3.990971,-2.050004 z M 9.8686483,57.564445 c 0.5668957,-0.0066 1.0327567,0.191167 1.2815757,0.593762 0.214461,0.347005 -0.418835,0.999498 -1.4076662,1.450041 -2.028624,0.924303 -3.5381479,-0.28748 -1.7606161,-1.413351 0.6521226,-0.413048 1.3198091,-0.623875 1.8867066,-0.630452 z m 45.6897177,1.567863 c 0.265659,0.01043 0.510704,0.05343 0.722953,0.134875 1.702135,0.653174 1.344697,1.906604 -0.773596,2.71198 -2.608543,0.991767 -3.78811,0.903332 -4.257105,-0.318844 -0.414365,-1.079824 2.448142,-2.601041 4.307748,-2.528011 z m 297.654184,0.06356 c 1.11358,-0.06442 2.28426,0.422725 3.69021,1.451074 1.23491,0.903248 1.16155,1.121884 -1.10846,3.29954 l -2.43086,2.331641 -2.87217,-1.488798 -2.87218,-1.489315 2.24586,-2.245858 c 1.17781,-1.177806 2.23402,-1.793868 3.3476,-1.858284 z m -231.1771,0.290938 c 0.46238,0.0284 0.79476,0.214858 1.0852,0.564824 0.5811,0.700179 0.30279,1.155113 -1.09761,1.793172 -2.15499,0.981875 -2.84108,1.052225 -3.53105,0.362252 -0.94167,-0.941665 -0.48,-1.583674 1.67897,-2.336292 0.81001,-0.28237 1.40207,-0.41236 1.86449,-0.383956 z M 34.00981,59.98962 c 0.155946,0.004 0.27636,0.03813 0.346749,0.10852 0.22521,0.22521 0.09874,0.699188 -0.280603,1.053166 -1.079856,1.007669 -4.014742,1.722833 -4.014742,0.978235 0,-0.725727 2.856984,-2.168009 3.948596,-2.139921 z m -21.030757,0.770496 c 0.392687,-0.02867 0.717179,0.05882 0.923974,0.265616 0.413597,0.413598 -0.04136,1.008315 -1.161686,1.518771 -2.29942,1.047685 -3.292128,-0.178621 -1.096057,-1.353923 0.480112,-0.256948 0.941078,-0.401795 1.333769,-0.430464 z m 21.581628,2.768823 c 0.177898,0.0056 0.315325,0.04506 0.395842,0.125574 0.227953,0.227952 -0.594819,0.936449 -1.828829,1.57458 -1.234013,0.638135 -2.424715,0.867308 -2.645834,0.50953 -0.396454,-0.641479 2.833542,-2.249237 4.078821,-2.209684 z m 13.078272,0.07286 1.621606,2.193664 c 0.892013,1.206514 1.509408,2.294951 1.372009,2.418974 -0.137399,0.124023 -2.98577,1.59451 -6.329846,3.267501 -3.344071,1.672987 -6.186063,3.041675 -6.315377,3.041675 -0.12931,0 -0.05344,-1.531948 0.168466,-3.403927 0.396506,-3.344991 0.481777,-3.438723 4.943367,-5.460649 z m -31.20378,0.14211 c 0.169739,0.01781 0.319362,0.0613 0.439249,0.135392 0.519888,0.321308 0.173694,0.869475 -0.938961,1.486214 -2.12948,1.180365 -2.871142,1.261972 -2.871142,0.31626 0,-0.915642 2.182658,-2.062527 3.370854,-1.937866 z m 109.181967,0.465604 c 0.73428,-0.01472 1.31183,0.209829 1.5999,0.675928 0.24049,0.389128 -0.53789,1.211534 -1.72961,1.827796 -1.85542,0.959473 -2.29042,0.971588 -3.02772,0.0832 -0.67957,-0.81884 -0.54983,-1.204388 0.61598,-1.828313 0.91602,-0.490235 1.80717,-0.743891 2.54145,-0.75861 z m -65.44872,0.480591 c 0.321002,0.03369 0.579881,0.172671 0.819589,0.412378 1.314653,1.314656 1.037018,1.821126 -1.478463,2.698027 -2.891336,1.00792 -3.373883,1.010859 -3.984253,0.02325 -0.579332,-0.937383 -0.591239,-0.924969 2.322339,-2.405538 1.078544,-0.548072 1.785789,-0.784263 2.320788,-0.728121 z m 307.02415,1.18029 c 1.45802,0.115298 4.70597,1.643697 5.30872,2.618962 0.21318,0.344923 -0.68033,1.651489 -1.9854,2.903182 l -2.37299,2.275313 -2.79879,-1.451074 -2.7988,-1.451591 1.59784,-2.243791 c 0.87867,-1.233962 2.02474,-2.407649 2.54713,-2.60811 0.12231,-0.04693 0.29401,-0.05936 0.50229,-0.04289 z m -348.44436,0.52452 c 1.596212,0 1.09077,1.27208 -0.695565,1.750797 -0.914481,0.245072 -1.995484,0.439932 -2.401921,0.432532 -1.099495,-0.01995 1.969685,-2.183329 3.097486,-2.183329 z m 16.059484,0.05116 c 0.354692,-0.02654 0.426331,0.184051 0.426331,0.615467 0,0.366674 -0.99761,1.014137 -2.216919,1.439188 -2.696175,0.939892 -2.962105,-0.05145 -0.334863,-1.248502 1.132878,-0.516175 1.770763,-0.779615 2.125451,-0.806153 z m 82.121086,1.265556 c 0.42729,-0.114746 3.6714,2.830165 7.20938,6.543787 l 6.43268,6.752042 -17.59841,10.059335 c -9.67916,5.532787 -17.983195,10.059846 -18.453135,10.059846 -1.010446,0 -13.468945,-14.685492 -13.468945,-15.876545 0,-0.651719 32.9198,-16.743944 35.87843,-17.538465 z m 12.62559,1.093474 c 0.49456,-0.02551 0.85825,0.100681 1.13378,0.376204 0.55105,0.551043 0.12322,1.12336 -1.44488,1.934249 -1.85711,0.960368 -2.36498,0.986673 -3.05304,0.157613 -0.6474,-0.780063 -0.33583,-1.197159 1.44487,-1.934766 0.79901,-0.330955 1.4247,-0.507786 1.91927,-0.5333 z m -108.810933,0.30799 c 1.128083,-0.03447 1.341876,0.842482 -0.220142,1.678451 -1.756612,0.94011 -2.085735,0.958663 -2.588472,0.14521 -0.214461,-0.347001 0.418835,-0.999501 1.407666,-1.45004 0.547212,-0.249328 1.024919,-0.362131 1.400948,-0.373621 z m 6.056478,0.240812 c 0.41905,-0.04499 1.030464,0.372863 1.311547,1.105359 0.233948,0.609656 0.158507,1.10846 -0.167431,1.10846 -0.770155,0 -1.578198,-0.819978 -1.578198,-1.601453 0,-0.391891 0.182649,-0.58537 0.434082,-0.612366 z m 8.019148,0.07752 c 0.400119,0.005 0.268417,0.356375 -0.650089,1.051099 -0.788944,0.596728 -1.952822,1.07325 -2.586406,1.05885 -0.738376,-0.01678 -0.488591,-0.405183 0.695565,-1.082105 1.208977,-0.691112 2.140815,-1.032817 2.54093,-1.027844 z m 29.055074,1.016475 c 0.491801,-0.04679 0.774878,0.133064 1.02216,0.522966 0.930742,1.467548 0.792837,1.765772 -1.246435,2.694926 -2.401106,1.094017 -2.927202,1.077614 -3.922758,-0.121957 -0.633077,-0.762807 -0.218971,-1.262312 1.87172,-2.259293 1.083035,-0.516465 1.783515,-0.789853 2.275313,-0.836642 z m -40.375313,1.174606 c 0.684256,-0.0081 0.545674,0.35074 -0.414445,1.076936 -1.596768,1.207737 -3.369303,1.43543 -3.369303,0.432532 0,-0.359029 0.748467,-0.853569 1.662947,-1.098641 1.003345,-0.268883 1.710246,-0.405969 2.120801,-0.410827 z m 11.192082,0.401526 c 0.334845,-0.043 0.543119,0.01359 0.543119,0.179833 0,0.332484 -0.831342,0.983461 -1.847432,1.446424 -1.01609,0.462959 -1.847433,0.569676 -1.847433,0.237195 0,-0.332485 0.831343,-0.98346 1.847433,-1.446424 0.508043,-0.231478 0.969464,-0.374033 1.304313,-0.417028 z m 98.785184,0.633553 c 1.36541,-0.07131 1.64631,0.954303 -0.0605,2.149739 -1.88347,1.319232 -2.37171,1.429607 -3.10007,0.701249 -0.88571,-0.885701 -0.52381,-1.472571 1.46709,-2.379699 0.66278,-0.301981 1.2383,-0.447519 1.69344,-0.471289 z m 248.73417,0.235644 2.75797,1.626774 c 3.21439,1.896524 3.29977,2.286544 1.14102,5.206401 -0.8893,1.202851 -1.80405,2.179193 -2.03244,2.169893 -0.76833,-0.03141 -5.95777,-3.224993 -5.95777,-3.666443 0,-0.240289 0.92038,-1.539128 2.04535,-2.886645 z m -346.606748,0.850594 -1.847433,1.507918 c -1.539452,1.256545 -1.60105,1.434936 -0.369486,1.068669 1.457653,-0.433494 1.458157,-0.423587 0.04341,0.729155 -1.896685,1.545422 -2.57181,1.475901 -2.128552,-0.219109 0.199611,-0.763329 1.248905,-1.769955 2.332157,-2.237072 z m -9.878467,0.09147 c 0.647285,-0.0058 0.388559,0.357134 -0.837158,1.057817 -2.162101,1.235973 -2.955892,1.35845 -2.955892,0.455786 0,-0.359029 0.748466,-0.853569 1.662947,-1.098641 1.027369,-0.275325 1.74173,-0.411498 2.130103,-0.414962 z m 149.873025,0.971517 c 1.00059,0.08632 0.23561,0.859049 -2.76624,2.939356 -2.84239,1.969765 -6.06055,3.08134 -6.05855,2.092379 0.002,-0.784661 6.84273,-4.934764 8.2889,-5.028634 0.21362,-0.01387 0.39294,-0.01543 0.53589,-0.0031 z M 27.246399,75.26259 c 1.057755,0 0.636379,1.30508 -0.571025,1.768367 -2.105268,0.807867 -2.925834,0.423955 -1.461409,-0.683679 0.788944,-0.596731 1.703679,-1.084688 2.032434,-1.084688 z m 139.894821,0.0062 c 1.06623,0 0.55156,0.615939 -1.84743,2.210717 -1.82897,1.215828 -3.99045,2.210718 -4.80333,2.210718 -1.06623,0 -0.55156,-0.615935 1.84743,-2.210718 1.82896,-1.215823 3.99045,-2.210717 4.80333,-2.210717 z m 15.69258,0.12609 c 0.14519,-0.01008 0.27799,-0.007 0.39584,0.01033 1.46883,0.215508 1.29476,0.501259 -1.60455,2.636015 -1.78834,1.316757 -4.09924,2.394169 -5.1356,2.394169 -2.02404,0 -1.93508,-0.124569 2.30631,-3.23081 1.39558,-1.022058 3.02165,-1.739152 4.038,-1.809709 z m -22.77432,0.05064 c 0.1071,-0.01698 0.1911,-0.01676 0.24908,0.0026 0.4639,0.154631 -0.69512,1.340338 -2.57607,2.634464 -1.88096,1.29413 -4.02104,2.352828 -4.75526,2.352828 -0.8054,0 0.21677,-1.04474 2.57658,-2.633947 1.88237,-1.267658 3.75594,-2.23704 4.50567,-2.355929 z m 32.17581,0.556038 c 2.69638,0 2.31487,0.786605 -1.70222,3.509864 -3.25592,2.20728 -6.80532,3.180742 -6.73602,1.847432 0.061,-1.172472 6.65256,-5.357296 8.43824,-5.357296 z m 166.94485,0 c 1.6946,10e-7 8.9925,3.733638 28.17606,14.414625 22.54654,12.553407 25.49509,14.338947 25.49509,15.438857 0,0.52934 -8.27421,14.39684 -18.387,30.81672 -12.42923,20.18109 -18.83446,29.92247 -19.76778,30.06483 -0.79817,0.12175 -5.58975,-2.78367 -11.35693,-6.88692 -5.48691,-3.90377 -18.52546,-12.81105 -28.97446,-19.79362 -11.60363,-7.75416 -19.0097,-13.1637 -19.0283,-13.89786 -0.0167,-0.66109 8.36585,-10.81615 18.62832,-22.5671 10.2625,-11.750947 19.85501,-22.76597 21.31653,-24.477577 1.46152,-1.711596 3.21604,-3.111954 3.89847,-3.111955 z m -205.43139,0.166399 c 0.0744,-0.01315 0.12472,-0.0096 0.14728,0.01292 0.20322,0.203219 -1.25177,1.409892 -3.23339,2.68149 -3.39246,2.17693 -4.58215,2.701202 -4.58215,2.019515 0,-0.542116 6.55183,-4.516707 7.66826,-4.713925 z m -86.145641,0.165881 c 0.507037,-0.04543 0.895715,0.108937 1.307413,0.450618 1.562136,1.29645 1.316489,1.781767 -1.398881,2.763656 -2.85042,1.030729 -3.047258,1.051717 -3.704166,0.394808 -0.94391,-0.943906 -0.477484,-1.694108 1.777669,-2.860291 0.885525,-0.457922 1.510924,-0.703357 2.017965,-0.748791 z m 70.055671,0.04961 c 0.16611,0.01828 0.29507,0.06356 0.3731,0.141594 0.32698,0.326971 -0.36309,1.144567 -1.53375,1.816426 -1.97189,1.13171 -2.98018,1.088383 -2.98018,-0.12764 0,-0.750592 2.97805,-1.958363 4.14083,-1.83038 z M 28.213265,77.502246 c 0.406438,0 0.240169,0.322246 -0.369487,0.716235 -0.609652,0.393993 -1.440995,0.716236 -1.847432,0.716236 -0.406438,0 -0.240169,-0.322243 0.369487,-0.716236 0.609653,-0.393989 1.440995,-0.716235 1.847432,-0.716235 z m 118.327665,0.250631 c 0.19492,-0.02148 -0.19342,0.332912 -1.19941,1.176155 -2.53006,2.120753 -4.76754,3.383428 -4.10983,2.319239 0.27625,-0.446986 0.33523,-0.812871 0.13126,-0.812871 -0.20397,0 -1.55406,0.697791 -2.99982,1.55081 -3.56014,2.10052 -3.33921,1.332851 0.31161,-1.083138 3.11787,-2.063305 4.08714,-2.413269 3.3414,-1.206645 -0.25119,0.406437 -0.12429,0.738973 0.28215,0.738973 0.40644,0 0.94337,-0.330592 1.19321,-0.734838 0.24984,-0.40425 1.18399,-1.091656 2.07584,-1.527556 0.52979,-0.25894 0.85663,-0.40724 0.97359,-0.420129 z m 55.10826,0.465604 c 2.86837,0 2.59471,0.965223 -1.02991,3.630787 -3.04507,2.239355 -6.01248,2.937748 -6.83421,1.60817 -0.66552,-1.076841 5.58213,-5.238957 7.86412,-5.238957 z m 10.20196,3.018421 c 0.76935,-0.0278 1.47643,0.193914 2.19367,0.647506 1.23584,0.78159 1.34414,0.621731 -2.48202,3.659724 -1.58003,1.254536 -3.57524,2.275529 -4.43384,2.269629 -1.61047,-0.01168 -4.0037,-1.180282 -3.38687,-1.653645 0.19145,-0.146916 1.72592,-1.32849 3.41012,-2.626197 1.96165,-1.511445 3.4167,-2.25069 4.69894,-2.297017 z m 186.2832,0.676444 c 1.16352,0 5.84926,2.485892 5.84926,3.10317 0,0.336855 -0.74847,1.767341 -1.66295,3.179134 -0.91449,1.411789 -1.82873,2.567852 -2.03191,2.569352 -0.20322,0.0012 -1.7845,-0.846013 -3.514,-1.882572 l -3.14451,-1.884639 1.9389,-2.542481 c 1.06648,-1.398214 2.2208,-2.541964 2.56521,-2.541964 z m -326.09792,0.35295 c 0.532164,0.03538 1.027132,0.196854 1.420068,0.522966 0.878876,0.729403 0.644864,1.09447 -1.402498,2.185913 -2.789828,1.487235 -3.127125,1.565092 -3.812687,0.879533 -1.52035,-1.520346 1.489064,-3.741739 3.795117,-3.588412 z m 60.9508,1.131714 c 0.49514,0.0038 -0.51333,0.854526 -2.24069,1.889807 -1.72736,1.035281 -3.14038,2.048921 -3.14038,2.253093 0,0.204164 0.41541,0.15654 0.92346,-0.105937 0.50805,-0.262477 0.12611,0.172817 -0.84904,0.966866 -1.17532,0.957023 -1.4578,1.548565 -0.83716,1.755449 0.52498,0.174986 -0.42978,1.216628 -2.17403,2.370914 -1.71087,1.132197 -3.26416,1.905026 -3.45147,1.717725 -0.1873,-0.187308 0.8586,-1.081368 2.32389,-1.986959 1.46529,-0.90559 2.48294,-1.827381 2.26188,-2.048454 -0.22107,-0.221068 0.0107,-0.901826 0.51521,-1.512569 0.80665,-0.976465 0.72297,-0.988679 -0.69711,-0.104386 -0.8882,0.553076 -1.41899,1.322601 -1.17926,1.71049 0.23973,0.387885 0.0709,0.479778 -0.37517,0.204122 -1.45536,-0.899469 -6.23345,4.851925 -8.78034,10.568859 -1.37016,3.07555 -2.91086,6.42324 -3.42408,7.43934 -0.51321,1.01609 -1.58713,1.93393 -2.38642,2.03967 -2.46496,0.3261 -11.429791,-4.54376 -11.429791,-6.20892 0,-0.802 33.619971,-20.95937 34.940501,-20.94911 z m 18.09244,0.12144 c 0.34996,-0.0027 0.5613,0.01302 0.59841,0.05013 0.14843,0.148439 -4.29283,3.467623 -9.86916,7.375777 -5.57636,3.90816 -12.09515,8.513115 -14.48646,10.232963 -2.3913,1.71986 -4.21719,2.82743 -4.05763,2.46135 0.15955,-0.36607 1.69679,-3.394 3.41581,-6.728785 2.72129,-5.279099 3.71324,-6.462607 7.67033,-9.14983 4.04351,-2.745887 5.23482,-3.161791 10.80089,-3.773413 2.58071,-0.283593 4.87792,-0.460238 5.92781,-0.468188 z m -15.47606,1.60662 c 0.2447,0.02815 -0.1613,0.366009 -1.24385,1.259355 -2.02978,1.675024 -3.66987,1.957288 -2.38642,0.410827 0.46953,-0.565727 1.59123,-1.213106 2.49235,-1.439188 0.61004,-0.153041 0.9911,-0.247882 1.13792,-0.230994 z m 87.74865,0.351917 c 0.36865,0.03076 0.752,0.133889 1.20251,0.290938 1.14075,0.397666 2.07429,1.000499 2.07429,1.33997 0,0.339464 -1.44764,1.803299 -3.21686,3.253031 -1.76922,1.449736 -3.51528,2.613379 -3.87986,2.585889 -1.18943,-0.08974 -3.98787,-1.640103 -3.98787,-2.209168 0,-0.305385 1.56047,-1.710897 3.468,-3.12384 2.25997,-1.673997 3.23384,-2.229113 4.33979,-2.13682 z M 76.732784,88.115552 c 0.82211,0.04034 1.361674,0.38697 1.361674,1.027327 0,0.343919 -1.137742,1.1682 -2.528528,1.831413 -2.143062,1.021957 -2.658572,1.049891 -3.378088,0.182935 -0.67665,-0.815314 -0.374508,-1.26813 1.487248,-2.230872 1.130987,-0.58486 2.235584,-0.851148 3.057694,-0.810803 z m 337.069866,1.902209 3.00653,1.775086 c 1.65344,0.97645 3.10037,2.0626 3.21583,2.413806 0.11546,0.35121 -0.4489,1.719723 -1.25419,3.040641 -1.76308,2.892006 -2.53904,2.959166 -6.1128,0.530717 l -2.75281,-1.870687 1.94872,-2.94504 z m -177.95658,0.870231 c 0.78263,0.04328 1.53639,0.409022 2.45825,1.054716 l 1.65829,1.161687 -3.51244,2.902665 c -3.90447,3.226458 -5.22546,3.508781 -7.53598,1.609721 l -1.57354,-1.293462 3.44113,-2.771407 c 2.37551,-1.913143 3.7599,-2.73606 5.06429,-2.66392 z M 80.299491,93.246505 c 0.471089,-0.01005 0.811659,0.23444 1.304314,0.727087 0.985296,0.985303 0.855888,1.238672 -1.163754,2.283065 -2.820488,1.458567 -3.551733,1.471497 -4.088639,0.07235 -0.2779,-0.724194 0.360676,-1.507556 1.860352,-2.283065 1.014822,-0.5248 1.616642,-0.789388 2.087727,-0.799434 z m 44.161649,1.613338 c 0.11627,9.8e-5 0.18119,0.04027 0.17983,0.128674 -0.005,0.32781 -1.16428,1.344297 -2.57607,2.258777 -2.86013,1.852622 -3.90219,2.134106 -2.73523,0.738973 0.97202,-1.162087 4.31757,-3.127108 5.13147,-3.126424 z m 123.87047,2.220019 c 0.52519,-3.53e-4 1.04779,0.257536 1.86087,0.677995 1.21377,0.627665 2.39475,1.445276 2.62413,1.816427 0.22938,0.371147 -1.20936,2.036116 -3.1967,3.700036 -1.98737,1.66389 -3.89984,3.0163 -4.24987,3.0055 -0.94128,-0.0291 -4.70049,-2.45922 -4.70049,-3.03858 0,-0.27445 1.64622,-1.87704 3.65817,-3.561536 2.24627,-1.88068 3.12857,-2.599252 4.00389,-2.599842 z M 84.607756,98.498897 c 0.50601,-0.04259 0.894186,0.1189 1.318782,0.471289 0.910396,0.755552 0.729796,1.102494 -1.179256,2.263424 -2.431692,1.47881 -3.177079,1.64486 -3.943429,0.8785 -0.943916,-0.94392 -0.477482,-1.6941 1.77767,-2.860287 0.896491,-0.463593 1.520219,-0.710331 2.026233,-0.752926 z m 38.330994,0.203605 c 0.1501,-0.02149 0.23358,0.0092 0.23358,0.0987 0,0.35819 -1.33015,1.531208 -2.9559,2.607078 -1.62571,1.07587 -2.9564,1.66303 -2.9564,1.30483 0,-0.35819 1.33069,-1.53122 2.9564,-2.60708 1.21932,-0.806887 2.27201,-1.339065 2.72232,-1.40353 z m 309.50979,2.649968 c 1.20777,0.0879 7.00577,3.2626 7.00577,3.90829 0,0.20717 -0.74795,1.68664 -1.66243,3.28817 -0.91449,1.60154 -1.83538,2.91465 -2.04587,2.91765 -0.31485,0.005 -5.51357,-3.29302 -6.57117,-4.16822 -0.37272,-0.30843 2.29727,-5.41365 3.09645,-5.92057 0.0366,-0.0232 0.0967,-0.0312 0.17725,-0.0253 z m -342.779595,1.55288 c 0.107532,0.01 0.197754,0.0369 0.270268,0.0816 1.266736,0.78285 0.774089,1.76729 -1.462443,2.92385 -1.199126,0.62009 -2.343074,1.12758 -2.54248,1.12758 -0.4747,0 -1.413894,-1.52459 -1.078488,-1.7508 2.450622,-1.65268 4.060427,-2.44918 4.813143,-2.38228 z m 30.576425,0.21239 c 0.19225,0.0273 -0.22294,0.51524 -1.13739,1.29191 -1.21931,1.03555 -2.54997,1.87383 -2.95641,1.86293 -0.84968,-0.0228 1.50771,-1.95056 3.69538,-3.02203 0.20322,-0.0995 0.33434,-0.1419 0.39842,-0.13281 z m 142.37012,1.89652 c 1.06142,-0.005 2.14294,0.5355 3.54863,1.5751 1.43779,1.06339 1.38867,1.18454 -1.81643,4.46588 -1.81197,1.85506 -3.80719,3.34242 -4.43384,3.30522 -1.2591,-0.0747 -5.20027,-2.28617 -5.20227,-2.9192 -7.3e-4,-0.22021 1.46784,-1.84226 3.26389,-3.60495 1.9439,-1.90779 3.27538,-2.81574 4.64002,-2.82205 z m -143.50751,1.31258 c 0.4064,0.0109 0.0734,0.53208 -0.73949,1.15859 -2.66392,2.05318 -4.48723,2.63252 -2.21692,0.70435 1.21931,-1.03556 2.54997,-1.87384 2.95641,-1.86294 z m -25.166944,1.07332 c 1.034796,0.011 1.295176,0.66142 -0.03152,1.65262 -2.351628,1.7569 -3.773716,2.39128 -4.263822,1.90117 -0.914586,-0.91459 -0.435547,-1.67686 1.771985,-2.81843 1.002851,-0.5186 1.902484,-0.74195 2.52336,-0.73536 z m 4.162537,3.06442 c 0.0856,0.0102 0.158997,0.0327 0.218074,0.0692 0.39022,0.24117 -0.260174,1.21431 -1.44539,2.16266 -2.360138,1.88851 -2.967835,2.06917 -3.588411,1.06505 -0.493912,-0.79916 3.531739,-3.45008 4.815727,-3.29695 z m 3.936707,1.74666 c 1.13294,0 0.23151,1.28282 -1.70584,2.42724 -2.376104,1.40361 -3.026684,1.55169 -3.026684,0.68833 0,-0.56886 3.868304,-3.11557 4.732524,-3.11557 z m 3.91914,0.81132 c 0.15301,0.0793 -0.0137,0.42254 -0.52296,1.03611 -1.19081,1.43483 -0.45324,1.40743 2.05827,-0.077 1.91181,-1.12997 1.90179,-1.09532 -0.21084,0.73536 -2.22815,1.93079 -3.80663,2.5656 -2.95589,1.18907 0.2512,-0.40644 0.12428,-0.73897 -0.28215,-0.73897 -0.40644,0 -0.94461,0.33253 -1.1958,0.73897 -0.25119,0.40643 -1.0129,0.73898 -1.69292,0.73898 -0.76058,0 -0.19039,-0.71097 1.48208,-1.84744 1.92235,-1.30623 3.0652,-1.90731 3.32021,-1.77508 z m 171.12082,0.25425 c 0.96604,0.0638 1.98913,0.70395 3.49385,1.87533 l 1.84743,1.43816 -3.69486,3.69486 -3.69487,3.69539 -2.77089,-1.59577 c -1.52414,-0.87778 -2.77141,-1.96039 -2.77141,-2.40554 0,-0.44515 1.46042,-2.24284 3.24528,-3.99459 1.95577,-1.91944 3.10346,-2.78983 4.34547,-2.70784 z m 15.2461,9.03665 3.04478,2.01435 c 3.40071,2.25051 3.43125,2.09356 -1.42059,7.28173 -1.42534,1.52414 -2.77333,2.75138 -2.99568,2.72748 -0.8829,-0.095 -5.94692,-3.70901 -5.94692,-4.24419 0,-0.31419 1.64668,-2.19315 3.6592,-4.17545 z m 16.01505,10.36061 3.11298,2.05982 c 1.71211,1.13302 3.11299,2.38567 3.11299,2.7833 0,0.39763 -1.36154,2.34867 -3.02514,4.33565 -1.66355,1.98699 -3.40915,3.59276 -3.87935,3.56826 -1.07251,-0.0557 -6.39702,-3.67572 -6.39702,-4.34909 0,-0.27404 1.59194,-2.2758 3.53777,-4.44831 z m 17.43459,12.0525 c 1.01958,0 6.49101,3.91765 6.51071,4.66173 0.009,0.32854 -1.39751,2.38796 -3.12487,4.57698 -1.72736,2.189 -3.47291,3.97313 -3.87935,3.96513 -1.38228,-0.028 -6.22633,-3.96182 -6.24923,-5.07514 -0.0266,-1.29488 5.64202,-8.1287 6.74274,-8.1287 z m 17.76998,12.56254 c 0.98519,0 7.23108,4.39482 7.23108,5.08806 0,0.32074 -1.34861,2.46609 -2.99672,4.76767 -1.64812,2.30152 -3.39368,4.17538 -3.87935,4.16408 -0.71463,-0.0166 -5.53162,-3.27336 -6.97166,-4.7134 -0.48916,-0.48915 5.77971,-9.30641 6.61665,-9.30641 z m 18.29604,13.28187 c 0.81007,-0.10512 3.17195,1.25073 5.47977,3.20704 l 2.87372,2.43603 -3.12487,4.9475 c -1.71853,2.72111 -3.34382,4.93758 -3.61218,4.92528 -0.91174,-0.0419 -7.50859,-5.28853 -7.50859,-5.97173 0,-0.37375 1.23519,-2.58677 2.74453,-4.91753 1.50937,-2.33072 2.81439,-4.35092 2.90009,-4.48964 0.0477,-0.0772 0.1318,-0.12193 0.24753,-0.13695 z m 23.02185,16.63258 c 0.75804,0.0241 1.63818,0.63505 3.01222,1.63039 4.91341,3.55928 5.01586,4.0211 2.10529,9.48676 -1.48501,2.78874 -3.02647,4.77473 -3.69486,4.76043 -1.07008,-0.0229 -2.24975,-0.83383 -6.55361,-4.5036 l -1.71204,-1.45934 2.34353,-4.21163 c 2.31127,-4.15379 3.23606,-5.74313 4.49947,-5.70301 z m 23.66005,15.47399 c 1.68972,-0.029 4.58651,1.8037 6.48074,3.88193 1.67056,1.83285 4.59668,2.94741 4.61367,5.58313 0.0214,3.32299 -2.1327,5.49794 -4.06796,7.46104 -1.58891,1.61175 -4.69016,3.97235 -5.83169,4.13618 -1.29562,0.18595 -4.26046,-1.0105 -6.43165,-3.04374 -4.09242,-3.8324 -4.70312,-4.69332 -4.38578,-6.69055 0.22108,-1.39142 0.99901,-3.52673 3.99201,-6.56911 2.66787,-2.7119 2.42531,-3.45681 4.98677,-4.62762 0.18567,-0.0849 0.4025,-0.12711 0.64389,-0.13126 z m 25.4748,21.87506 c 3.11327,0.65991 3.33689,1.08203 6.1827,3.78849 2.18185,2.07502 6.0747,5.37633 7.4259,7.86412 -2.74648,5.77404 -6.62007,8.12665 -11.87989,11.17296 -3.15907,-1.02437 -5.66057,-3.7878 -8.5509,-6.31331 -2.47755,-2.16482 -4.50334,-2.82953 -5.50911,-5.71503 0.96356,-3.21514 3.61298,-4.1841 5.95699,-5.88981 2.10338,-1.53061 3.91489,-4.22909 6.37431,-4.90742 z m 26.08226,97.86389 0.34262,2.39985 c 0,0 1.37018,-0.61664 2.58899,-2.39985 z"
       sodipodi:nodetypes="ssscssscccsssccccsssssssccccsccccccccscssssssssscccssscsssssssssscccsssscscsccssssssscssssscsssccssssssssccsscsssccsscsssssssssssscssscsssssssssssssssccscsscccscsccssssssssssssscsccsccsssscccssscccssccssssccscscssccssscscssssssssscssscssssscssssssssssssssssscsssssssscssssscsssssssssssscssssssssssscsssscscsssssssscsssscsscscssscssssscsssssssssssscsssssssssssssssssssssscsssscsssccssscssscssssssssscssccssscccssccccccsscsssscscscssscsccsssssssssssssssssscssscccscssccssssssssssssssssssscccccsssscssssssssccssssssssssssssssssccssscssssssssssssssssssssscccscscccsssscccssscsscssscsssscssscsssssssssssscssssssssssssscssssssssssssssssssssssssssssssssssssscsssssscsccsssssscssssssssscsssssssscssssssscsssssssssssssssssssscssscccscccccsssscsssscssssssscssssscssssssssscsscssccsssccssssscssssscssssccsssscsssssssccssscssccssccccsssccccscsccsscsccssscsssssscssscccssssssssscsssssssssssscsccscsccccccscsssssssssscsccscsccccc" /></g></svg>
