<?xml version="1.0" encoding="UTF-8" standalone="no"?>
<!-- Created with Inkscape (http://www.inkscape.org/) -->
<svg xmlns:inkscape="http://www.inkscape.org/namespaces/inkscape" xmlns:rdf="http://www.w3.org/1999/02/22-rdf-syntax-ns#" xmlns="http://www.w3.org/2000/svg" xmlns:xlink="http://www.w3.org/1999/xlink" xmlns:ns1="http://sozi.baierouge.fr" xmlns:cc="http://creativecommons.org/ns#" xmlns:sodipodi="http://sodipodi.sourceforge.net/DTD/sodipodi-0.dtd" xmlns:dc="http://purl.org/dc/elements/1.1/" id="svg2" xml:space="preserve" viewBox="0 0 39.779 46.603" version="1.1" inkscape:version="0.91 r13725">
  <g id="g10" transform="matrix(1.25 0 0 -1.25 0 46.603)">
    <g id="g12">
      <path id="path14" style="fill-rule:evenodd;fill:#9c9797" d="m29.586 29.427-27.203 0.988 0.058 1.106c-0.039 0.191-0.019 0.426 0.059 0.699 0.156 0.504 0.465 0.891 0.93 1.16 0.504 0.274 1.144 0.368 1.918 0.289 0.39-0.035 0.718-0.093 0.988-0.171 0 0.117 0.039 0.25 0.117 0.406 0.156 0.308 0.406 0.523 0.758 0.64 0.582 0.196 1.316 0.289 2.207 0.289 0.039 0.196 0.156 0.407 0.348 0.641 0.39 0.426 0.988 0.699 1.804 0.813 1.278 0.195 2.403 0.234 3.371 0.117 0.118 0.156 0.289 0.308 0.524 0.465 0.426 0.308 0.871 0.449 1.336 0.406 0.699-0.074 1.531-0.695 2.5-1.86l0.637 0.231c0.542 0.117 1.046 0.137 1.511 0.059 0.699-0.114 1.219-0.657 1.571-1.629h2.324c0.621-0.075 1.105-0.559 1.453-1.45h0.523c0.387-0.039 0.793-0.175 1.219-0.406 0.621-0.39 0.969-1.32 1.047-2.793z" inkscape:connector-curvature="0"/>
      <path id="path16" style="fill-rule:evenodd;fill:#e79d9c" d="m17.789 13.154v11.39h0.406c-0.039-0.695-0.019-2.691 0.059-5.984 0.078-2.48-0.078-4.281-0.465-5.406z" inkscape:connector-curvature="0"/>
      <path id="path18" style="fill-rule:evenodd;fill:#e79d9c" d="m20.402 22.802c-0.039-0.23-0.019-1.047 0.059-2.441 0.039-1.047-0.137-1.688-0.523-1.918 0.039 0.23 0.039 1.047 0 2.441-0.079 1.047 0.078 1.688 0.464 1.918z" inkscape:connector-curvature="0"/>
      <path id="path20" style="fill-rule:evenodd;fill:#d52d37" d="m19.59 9.259c-0.078-1.746-0.098-2.769-0.059-3.082-0.195-0.191-0.426-0.562-0.695-1.101-0.234-0.352-0.582-0.274-1.047 0.23v6.102c0.191 0 0.465 0.019 0.813 0.058 0.273 0.039 0.425 0.176 0.464 0.407 0.426-0.426 0.602-1.297 0.524-2.614z" inkscape:connector-curvature="0"/>
      <path id="path22" style="fill-rule:evenodd;fill:#dcd5d2" d="m19.938 6.177c0.503 0.274 0.792 0.856 0.871 1.746 0.273 0 0.449-0.215 0.523-0.64 0.039-0.426 0.156-0.657 0.348-0.696v-1.281l-1.278-1.336c-0.386-0.039-0.562 0.235-0.523 0.817 0.078 0.851 0.098 1.312 0.059 1.39z" inkscape:connector-curvature="0"/>
      <path id="path24" style="fill-rule:evenodd;fill:#9c9797" d="m7.848 32.915c-0.27-0.078-0.754-0.097-1.453-0.058-0.231 0.621 0.019 1.047 0.753 1.281 0.778 0.231 1.262 0.098 1.454-0.41-0.036-0.426-0.29-0.695-0.754-0.813z" inkscape:connector-curvature="0"/>
      <path id="path26" style="fill-rule:evenodd;fill:#f2db8b" d="m25.461 32.915c-0.039-0.582 0.016-1.046 0.176-1.394 0-0.156-0.098-0.352-0.293-0.582-0.156-0.195-0.196-0.426-0.117-0.699-0.348 0.156-0.598 0.254-0.754 0.293-0.235 0.117-0.426 0.019-0.582-0.293-0.196 0.039-0.407 0.195-0.641 0.468-0.23 0.231-0.465 0.368-0.695 0.407 0.078 0.269 0.23 0.386 0.465 0.347 0.269 0 0.425-0.117 0.464-0.347 0.153 0.039 0.289 0.191 0.407 0.465 0.117 0.269 0.273 0.406 0.464 0.406-0.425 0.347-0.66 0.582-0.695 0.699-0.117 0.23 0.113 0.445 0.695 0.637 0.274-0.078 0.407 0.058 0.407 0.406 0.504-0.23 0.738-0.504 0.699-0.813z" inkscape:connector-curvature="0"/>
      <path id="path28" style="fill-rule:evenodd;fill:#f2db8b" d="m14.242 35.068c0.426-0.43 0.524-1.028 0.289-1.801-0.117-0.391-0.347-0.973-0.695-1.746-0.543 0.078-0.758 0.309-0.641 0.699 0.117 0.387 0.039 0.598-0.234 0.637v0.871c-0.813 0.078-1.258-0.055-1.336-0.406-0.734-0.582-1.684-0.949-2.848-1.102-1.199-0.078-1.996-0.156-2.382-0.234h-0.465v0.871h0.465c0.699-0.039 1.183-0.02 1.453 0.058 0.464 0.118 0.718 0.387 0.754 0.813 0.234 0.543 1.027 0.836 2.386 0.875 1.547 0.035 2.496 0.191 2.844 0.465h0.41z" inkscape:connector-curvature="0"/>
      <path id="path30" style="fill-rule:evenodd;fill:#f2db8b" d="m21.273 33.728c-0.113-0.426 0.039-0.793 0.465-1.102 0.391-0.273 0.524-0.64 0.41-1.105-0.507-0.039-0.836 0.137-0.988 0.523-0.156 0.543-0.273 0.969-0.351 1.278-0.774-0.348-1.297-0.563-1.567-0.637-0.426-0.117-1.066-0.059-1.918 0.172 0.192-0.348 0.539-0.793 1.047-1.336 0.27-0.465 0.074-0.891-0.582-1.281 0.113-0.387 0.367-0.387 0.754 0 0.465 0.543 0.93 0.679 1.395 0.41 0.195-0.582 0.058-1.008-0.407-1.281-0.386-0.231-0.386-0.524 0-0.871 0.657-0.04 1.086 0.253 1.278 0.871 0.195 0 0.39-0.172 0.582-0.524 0.156-0.308 0.406-0.426 0.757-0.347-0.039-0.235-0.117-0.465-0.234-0.696-0.078-0.195 0-0.41 0.234-0.64 0.231 0.039 0.407 0.23 0.52 0.582 0.156 0.425 0.273 0.675 0.352 0.754 0.23 0 0.484-0.192 0.753-0.583 0.235-0.308 0.563-0.406 0.989-0.289 0-0.117-0.078-0.253-0.231-0.406-0.117-0.156-0.176-0.312-0.176-0.465-0.968-0.117-1.687-0.254-2.152-0.41-0.656-0.269-1.258-0.715-1.801-1.336-0.039 0.313-0.347 0.348-0.929 0.117-0.657-0.351-1.086-0.543-1.278-0.582h-0.875c-0.039 0.465 0.118 0.754 0.469 0.871-0.391 0.313-0.641 0.563-0.758 0.754-0.23 0.391-0.273 0.875-0.117 1.454-0.504 0.156-0.891 0-1.16-0.461-0.149-0.204-0.18-0.34-0.09-0.411-0.469-0.113-0.848-0.441-1.133-0.988-0.465-0.851-0.25-1.414 0.641-1.683-0.078-0.157-0.293-0.309-0.641-0.465-0.23-0.196-0.328-0.465-0.289-0.813-0.156-0.043-0.347-0.195-0.582-0.469-0.234-0.23-0.465-0.367-0.699-0.406-0.426 0.391-0.734 0.68-0.93 0.875-0.308 0.348-0.445 0.774-0.406 1.278-0.27-0.274-0.563-0.407-0.871-0.407-0.387-0.117-0.524-0.41-0.41-0.871-0.617 0.192-0.91 0.617-0.871 1.278v0.464c-0.309 0.309-0.465 0.602-0.465 0.871 0.39 0.118 0.64 0 0.758-0.347 0.039-0.039 0.078-0.367 0.113-0.988 0.465 0.503 1.105 0.714 1.918 0.64 0.66-0.078 1.047 0.153 1.164 0.695 0.465-0.117 0.582-0.347 0.348-0.695-0.348-0.465-0.465-0.816-0.348-1.047 0.734 0.117 1.105 0.407 1.105 0.871-0.156 0.696-0.234 1.278-0.234 1.746-0.27-0.234-0.484-0.312-0.641-0.234-0.191 0.078-0.269 0.309-0.23 0.695h0.871c0.039 0.469-0.098 0.836-0.406 1.106-0.039 0.039-0.348 0.254-0.93 0.641 0.039 0.23 0.192 0.445 0.465 0.636 0.23 0.235 0.367 0.449 0.406 0.641 0.543-0.309 1.375-0.406 2.5-0.289 0.606 0.074 1.082 0.023 1.426-0.145-0.367 0.446-0.492 0.996-0.379 1.657 0.191 1.007 0.039 1.781-0.465 2.324-0.387-0.117-0.523-0.41-0.406-0.871-0.508 0.191-0.738 0.461-0.699 0.812 0.039 0.543-0.02 0.988-0.176 1.336 0.504-0.621 1.031-0.851 1.57-0.695 0.352 0.117 0.989 0.347 1.918 0.695 0-0.199-0.086-0.414-0.261-0.637 0.187 0.121 0.429 0.102 0.726-0.058 0.426-0.235 0.699-0.137 0.813 0.289 0.468 0 0.757-0.02 0.875-0.059 0.273-0.035 0.425-0.172 0.464-0.406z" inkscape:connector-curvature="0"/>
      <path id="path32" style="fill-rule:evenodd;fill:#f9eebc" d="m19.938 34.197c-0.118-0.43-0.387-0.524-0.813-0.293-0.297 0.16-0.539 0.183-0.727 0.058 0.172 0.227 0.262 0.438 0.262 0.641-0.93-0.352-1.57-0.582-1.918-0.699-0.543-0.153-1.066 0.078-1.57 0.699 0.156-0.352 0.215-0.797 0.176-1.336-0.043-0.352 0.191-0.621 0.695-0.816-0.117 0.464 0.019 0.754 0.406 0.871 0.504-0.543 0.66-1.317 0.465-2.324-0.113-0.657 0.012-1.211 0.379-1.657-0.344 0.168-0.816 0.219-1.422 0.149-1.125-0.117-1.957-0.02-2.5 0.289-0.039-0.196-0.176-0.41-0.41-0.641-0.27-0.195-0.426-0.406-0.461-0.64 0.578-0.387 0.891-0.598 0.93-0.637 0.308-0.274 0.445-0.641 0.406-1.106h-0.875c0 0.153-0.094 0.27-0.289 0.348-0.27 0-0.465 0.02-0.582 0.059v1.746h0.41c-0.039 0.23-0.332 0.461-0.875 0.695-0.426 0.156-0.563 0.504-0.406 1.047-1.551-1.008-2.578-2.016-3.082-3.024-0.426 0.313-0.774 0.543-1.047 0.7-0.426 0.269-0.949 0.328-1.567 0.172 0.27-0.348 0.696-0.637 1.278-0.872 0-0.191-0.098-0.308-0.289-0.347-0.274-0.039-0.465-0.078-0.582-0.117 0 0.156-0.098 0.273-0.293 0.347-0.27 0.039-0.461 0.078-0.578 0.117 0.269 0.93 0.269 1.59 0 1.977-0.504 0.504-0.93 1.008-1.282 1.512 0 0.425 0.313 0.66 0.93 0.699 0.699 0.074 1.105 0.422 1.223 1.043v-0.871c-0.27-0.426-0.407-0.871-0.407-1.336 0.543-1.164 1.008-1.434 1.395-0.817 0.348 0.622 0.176 1.336-0.523 2.153 0.386 0.078 1.183 0.156 2.382 0.234 1.164 0.153 2.114 0.52 2.852 1.102 0.773-0.231 0.93-0.407 0.461-0.524-0.735-0.152-1.18-0.269-1.336-0.347 0.078-0.504 0.504-0.68 1.281-0.524 0.735 0.196 1.047 0.504 0.93 0.93 0.269-0.039 0.347-0.25 0.23-0.637-0.117-0.39 0.098-0.621 0.641-0.699 0.348 0.773 0.582 1.355 0.699 1.746 0.231 0.773 0.133 1.371-0.293 1.801h-0.406v0.871c2.016-0.348 3.625-0.348 4.824 0 0.274-0.039 0.445-0.367 0.524-0.988 0.078-0.582 0.328-0.832 0.754-0.754z" inkscape:connector-curvature="0"/>
      <path id="path34" style="fill-rule:evenodd;fill:#f9eebc" d="m24.355 33.322c-0.582-0.192-0.812-0.407-0.695-0.637 0.035-0.117 0.27-0.352 0.695-0.699-0.191 0-0.347-0.137-0.464-0.406-0.118-0.274-0.25-0.426-0.407-0.465-0.039 0.23-0.195 0.347-0.464 0.347-0.235 0.039-0.387-0.078-0.465-0.347 0.23-0.039 0.465-0.176 0.695-0.407 0.234-0.273 0.445-0.429 0.641-0.468 0.117-0.348 0.406-0.504 0.871-0.461-0.27-0.582-0.793-0.797-1.567-0.641-0.621 0.156-0.972-0.058-1.047-0.64-0.351-0.079-0.601 0.039-0.757 0.347-0.192 0.352-0.387 0.524-0.582 0.524-0.192-0.618-0.618-0.911-1.278-0.871-0.386 0.347-0.386 0.64 0 0.871 0.465 0.273 0.602 0.699 0.407 1.281-0.465 0.269-0.93 0.133-1.395-0.41-0.387-0.387-0.641-0.387-0.754 0 0.656 0.39 0.852 0.816 0.582 1.281-0.508 0.543-0.855 0.988-1.047 1.336 0.852-0.231 1.492-0.289 1.918-0.172 0.27 0.074 0.793 0.289 1.567 0.637 0.078-0.309 0.195-0.735 0.351-1.278 0.152-0.386 0.481-0.562 0.988-0.523 0.114 0.465-0.019 0.832-0.41 1.105-0.426 0.309-0.578 0.676-0.465 1.102 0.352-0.27 0.875-0.309 1.571-0.113 0.66 0.191 1.164 0.093 1.511-0.293z" inkscape:connector-curvature="0"/>
      <path id="path36" style="fill-rule:evenodd;fill:#dcba5d" d="m28.715 30.244v-1.336c-0.235 0-0.485-0.176-0.754-0.524-0.234-0.351-0.563-0.465-0.988-0.351 0 0.738-0.25 0.894-0.758 0.465-0.735-0.622-1.219-0.911-1.449-0.872-0.426-0.117-0.758-0.019-0.989 0.289-0.273 0.391-0.523 0.583-0.757 0.583-0.079-0.075-0.192-0.329-0.348-0.754-0.117-0.352-0.293-0.543-0.524-0.582-0.234 0.23-0.308 0.445-0.234 0.64 0.117 0.231 0.195 0.465 0.234 0.696 0.079 0.582 0.426 0.796 1.047 0.64 0.774-0.156 1.297 0.059 1.571 0.641-0.465-0.039-0.758 0.117-0.871 0.465 0.152 0.308 0.347 0.406 0.578 0.289 0.156-0.039 0.406-0.137 0.757-0.289-0.078 0.269-0.039 0.504 0.118 0.695 0.191 0.234 0.289 0.426 0.289 0.582 0.23 0.078 0.386-0.059 0.465-0.406-0.27-0.309-0.641-0.836-1.106-1.571-0.426-0.699-0.793-1.199-1.101-1.511 1.121 0.039 1.703 0.621 1.742 1.746 0.465-0.313 0.91-0.446 1.336-0.41 0.039 0.234-0.039 0.523-0.231 0.875-0.156 0.308-0.234 0.597-0.234 0.871 0.621 0.308 1.066 0.347 1.336 0.117 0.191-0.117 0.484-0.445 0.871-0.988z" inkscape:connector-curvature="0"/>
      <path id="path38" style="fill-rule:evenodd;fill:#dcba5d" d="m5.059 27.626c-0.621 0.813-1.047 1.684-1.282 2.618-0.074-0.118-0.328-0.235-0.754-0.352-0.347-0.113-0.543-0.289-0.582-0.523-0.425 0.039-0.582 0.39-0.464 1.05 0.117 0.539 0.273 0.911 0.464 1.102 0.43-0.27 0.871-0.406 1.34-0.406 0.348-0.504 0.774-1.008 1.278-1.512 0.269-0.387 0.269-1.047 0-1.977z" inkscape:connector-curvature="0"/>
      <path id="path40" style="fill-rule:evenodd;fill:#fefffd" d="m6.395 31.986c0.699-0.817 0.871-1.531 0.523-2.153-0.387-0.617-0.852-0.347-1.395 0.817 0 0.465 0.137 0.91 0.407 1.336h0.465z" inkscape:connector-curvature="0"/>
      <path id="path42" style="fill-rule:evenodd;fill:#9c9797" d="m1.281 25.591c0.696-2.324 1.086-4.125 1.16-5.402 0.391 0.074 0.543 0.367 0.465 0.871 0.235-0.039 0.367-0.215 0.406-0.523v-0.817c-0.503-0.23-0.558-0.812-0.171-1.742 0.386-0.969 0.308-1.551-0.235-1.746-0.074 1.047-0.734 3.664-1.976 7.848-0.965 3.218-1.18 5.562-0.637 7.035 0.039-1.473 0.367-3.313 0.988-5.524z" inkscape:connector-curvature="0"/>
      <path id="path44" style="fill-rule:evenodd;fill:#f2db8b" d="m26.508 31.115c0-0.274 0.074-0.563 0.23-0.875 0.192-0.348 0.274-0.637 0.235-0.871-0.43-0.039-0.875 0.097-1.34 0.41-0.039-1.125-0.617-1.707-1.742-1.746 0.308 0.308 0.675 0.812 1.105 1.511 0.465 0.735 0.832 1.258 1.102 1.571h0.41z" inkscape:connector-curvature="0"/>
      <path id="path46" style="fill-rule:evenodd;fill:#f2db8b" d="m10.348 28.908c-0.852-0.934-1.434-1.649-1.746-2.153-0.461 0.309-0.911 0.446-1.336 0.407 0.039 0.39-0.02 0.621-0.172 0.699-0.156 0.113-0.254 0.035-0.293-0.235-0.582 0.235-1.008 0.524-1.278 0.872 0.622 0.156 1.145 0.097 1.571-0.172 0.269-0.157 0.617-0.391 1.047-0.7 0.504 1.008 1.527 2.016 3.078 3.024-0.153-0.543-0.02-0.891 0.41-1.047 0.539-0.234 0.832-0.465 0.871-0.699h-0.41c-0.461-0.578-0.695-1.18-0.695-1.801 0.039-0.699 0.406-1.105 1.105-1.223-0.66-0.656-1.262-0.578-1.801 0.235-0.508 0.816-0.625 1.746-0.351 2.793z" inkscape:connector-curvature="0"/>
      <path id="path48" style="fill-rule:evenodd;fill:#b5b7b5" d="m2.441 31.521c-0.191-0.191-0.347-0.563-0.464-1.106-0.114-0.656 0.039-1.007 0.464-1.046 0.039 0.234 0.235 0.41 0.582 0.523 0.426 0.117 0.68 0.234 0.758 0.348 0.231-0.93 0.657-1.801 1.278-2.614 0.117-0.039 0.308-0.078 0.582-0.117 0.195-0.078 0.289-0.195 0.289-0.347-1.008-0.739-1.028-3.18-0.059-7.325 1.242-5.425 1.859-8.66 1.859-9.707-0.035-0.386-0.035-1.066 0-2.035-0.074-0.66-0.386-0.719-0.929-0.176-0.852 4.727-1.508 8.274-1.977 10.637-0.812 4.227-1.605 7.676-2.383 10.352-0.89-0.582-0.984-1.903-0.289-3.953 0.739-2.211 0.989-3.508 0.754-3.895 0.078-0.504-0.074-0.797-0.465-0.871-0.074 1.277-0.464 3.078-1.16 5.402-0.621 2.211-0.949 4.051-0.988 5.524 0.152 0 0.25 0.097 0.289 0.289 0.039 0.273 0.078 0.465 0.117 0.582 0.235-0.039 0.602-0.039 1.106 0 0.386-0.039 0.597-0.192 0.636-0.465z" inkscape:connector-curvature="0"/>
      <path id="path50" style="fill-rule:evenodd;fill:#b5b7b5" d="m3.312 19.72c0.469-1.781 1.493-6.297 3.083-13.543-0.079-0.543-0.29-0.582-0.637-0.117-0.352 0.504-0.43 0.969-0.235 1.398 0 0.114-0.097 0.055-0.289-0.175-0.234-0.235-0.351-0.313-0.351-0.235v0.641c0.273 0.309 0.215 0.367-0.172 0.176-0.273-0.157-0.293-0.137-0.059 0.054-0.078 1.125-0.347 2.539-0.816 4.246-0.539 1.782-0.852 3.137-0.93 4.067 0.543 0.195 0.621 0.777 0.235 1.746-0.391 0.93-0.332 1.512 0.171 1.742z" inkscape:connector-curvature="0"/>
      <path id="path52" style="fill-rule:evenodd;fill:#9c9797" d="m7.73 8.095c-0.039 0.969-0.039 1.649 0 2.035 0.465-1.047 0.891-3.097 1.282-6.16-0.66-0.195-1.047 0.059-1.164 0.754-0.153 0.891-0.348 1.375-0.582 1.453 0.039 0.235-0.036 0.524-0.231 0.871-0.156 0.313-0.234 0.602-0.234 0.875 0.543-0.543 0.855-0.484 0.929 0.172z" inkscape:connector-curvature="0"/>
      <path id="path54" style="fill-rule:evenodd;fill:#dcd5d2" d="m7.266 25.009c-0.075 0.352-0.27 0.719-0.582 1.106-0.426 0.543-0.676 0.89-0.754 1.047 0.117 0.039 0.308 0.078 0.582 0.117 0.195 0.039 0.289 0.156 0.289 0.347 0.039 0.274 0.137 0.352 0.293 0.235 0.152-0.078 0.211-0.309 0.172-0.696-0.309-0.738-0.133-1.144 0.523-1.222 0.777-0.117 1.184-0.289 1.223-0.524 0-0.269 0.152-0.562 0.461-0.871-0.461 0.348-0.813 0.602-1.043 0.754-0.387 0.196-0.774 0.098-1.164-0.293z" inkscape:connector-curvature="0"/>
      <path id="path56" style="fill-rule:evenodd;fill:#f2f3f1" d="m29.586 28.498c-0.621-2.208-1.356-5.715-2.207-10.52-0.313-2.828-0.738-4.863-1.281-6.102-0.27-0.039-0.465-0.078-0.582-0.117-0.192-0.039-0.289-0.156-0.289-0.351-0.27 0.039-0.426 0.254-0.465 0.64 0.039 0.504 0.039 0.875 0 1.106v1.336c1.047 4.883 1.629 8.972 1.746 12.265 0.23 0.039 0.367 0.192 0.406 0.465 0.039 0.348 0.059 0.621 0.059 0.813 0.425-0.114 0.754 0 0.988 0.351 0.269 0.348 0.519 0.524 0.754 0.524v1.336c0.465 0.734 0.988 0.871 1.57 0.406 0.582-0.426 0.93-0.563 1.047-0.406 0.465-0.313 0.598-0.93 0.406-1.86-0.195-0.777-0.484-1.32-0.871-1.629v2.153c-0.351 0-0.621-0.02-0.816-0.063-0.27 0-0.426-0.113-0.465-0.347z" inkscape:connector-curvature="0"/>
      <path id="path58" style="fill-rule:evenodd;fill:#d52d37" d="m26.102 11.876c0.539 1.239 0.968 3.274 1.277 6.102 1.086 0.852 1.918 2.5 2.5 4.941 0.582 2.559 0.484 4.418-0.289 5.579 0.039 0.234 0.191 0.351 0.465 0.351 0.191 0.039 0.461 0.059 0.812 0.059v-2.153c-0.387-1.664-1.086-5.054-2.094-10.172-0.851-4.261-1.609-7.593-2.265-9.996-0.235 0.078-0.348 0.465-0.348 1.164-0.039 0.657-0.215 1.004-0.523 1.043-0.078 0.43 0.019 0.934 0.289 1.512 0.23 0.504 0.289 1.027 0.176 1.57z" inkscape:connector-curvature="0"/>
      <path id="path60" style="fill-rule:evenodd;fill:#e76d73" d="m29.586 28.498c0.777-1.161 0.875-3.02 0.293-5.579-0.582-2.441-1.414-4.089-2.5-4.941 0.851 4.805 1.586 8.312 2.207 10.52z" inkscape:connector-curvature="0"/>
      <path id="path62" style="fill-rule:evenodd;fill:#f9eebc" d="m24.125 26.173c0.152 0.27 0.23 0.465 0.23 0.582 0 0.157 0.059 0.309 0.176 0.465 0.153 0.156 0.231 0.289 0.231 0.406 0.234-0.039 0.718 0.254 1.453 0.872 0.504 0.429 0.758 0.273 0.758-0.461 0-0.196-0.02-0.469-0.059-0.817-0.039-0.269-0.176-0.426-0.406-0.465v0.871c-0.543-0.039-0.988-0.25-1.34-0.636-0.039 0-0.309-0.371-0.813-1.106-0.23 0.074-0.308 0.172-0.23 0.289z" inkscape:connector-curvature="0"/>
      <path id="path64" style="fill-rule:evenodd;fill:#f2f3f1" d="m20.402 25.009c0.543 0.621 1.145 1.067 1.801 1.34 0.465 0.152 1.184 0.289 2.152 0.406 0-0.117-0.078-0.308-0.234-0.582-0.074-0.117 0-0.215 0.234-0.289-0.851-4.304-1.296-8.097-1.335-11.394 0-0.27-0.118-0.676-0.352-1.219-0.191-0.426-0.23-0.891-0.117-1.395-0.039-0.273-0.133-1.203-0.289-2.789-0.078-1.164-0.274-1.996-0.582-2.5-0.192 0.039-0.309 0.27-0.348 0.696-0.078 0.425-0.254 0.64-0.523 0.64-0.079-0.89-0.368-1.472-0.871-1.746v12.266c0.386 0.23 0.558 0.875 0.523 1.918-0.078 1.394-0.098 2.211-0.059 2.441v1.106c-0.039 0.386-0.195 0.597-0.464 0.64-0.04 0.231 0.117 0.387 0.464 0.461z" inkscape:connector-curvature="0"/>
      <path id="path66" style="fill-rule:evenodd;fill:#d52d37" d="m23.02 14.49c0.386-0.192 0.773-0.039 1.16 0.465 0.273 0.386 0.465 0.371 0.582-0.059-0.192-0.039-0.407-0.328-0.637-0.871-0.195-0.426-0.563-0.563-1.105-0.406 0.308-0.313 0.445-0.661 0.406-1.047-0.078-0.426-0.367-0.66-0.871-0.699-0.117 0.503-0.078 0.968 0.117 1.398 0.23 0.543 0.348 0.949 0.348 1.219z" inkscape:connector-curvature="0"/>
      <path id="path68" style="fill-rule:evenodd;fill:#e76d73" d="m24.355 25.88c0.504 0.739 0.774 1.106 0.813 1.106 0.352 0.387 0.797 0.601 1.34 0.64v-0.871c-0.117-3.293-0.699-7.382-1.746-12.265v0.406c-0.117 0.43-0.309 0.445-0.582 0.059-0.387-0.504-0.774-0.657-1.16-0.465 0.039 3.293 0.484 7.09 1.335 11.39z" inkscape:connector-curvature="0"/>
      <path id="path70" style="fill-rule:evenodd;fill:#b5b7b5" d="m9.477 24.08c-0.387-0.27-0.446-0.872-0.176-1.801 0.308-1.125 0.367-1.977 0.176-2.559-0.039-0.734-0.118-1.238-0.235-1.512-0.191-0.464-0.562-0.675-1.101-0.636 0 0.929-0.293 3.406-0.875 7.437 0.39 0.391 0.777 0.485 1.164 0.293 0.234-0.156 0.582-0.406 1.047-0.758v-0.464z" inkscape:connector-curvature="0"/>
      <path id="path72" style="fill-rule:evenodd;fill:#e76d73" d="m20.402 22.802c-0.386-0.23-0.543-0.871-0.464-1.918 0.039-1.394 0.039-2.211 0-2.441v-12.266h-0.407c-0.039 0.313-0.019 1.34 0.059 3.082 0.074 1.317-0.098 2.192-0.524 2.617-0.039-0.234-0.195-0.367-0.464-0.406-0.352-0.039-0.622-0.058-0.813-0.058v1.742c0.383 1.125 0.539 2.926 0.461 5.406-0.078 3.293-0.094 5.289-0.055 5.988 0.192 0.039 0.617 0.231 1.278 0.582 0.582 0.231 0.89 0.192 0.929-0.117-0.347-0.078-0.504-0.234-0.464-0.465 0.269-0.039 0.425-0.25 0.464-0.64v-1.106z" inkscape:connector-curvature="0"/>
      <path id="path74" style="fill-rule:evenodd;fill:#f2f3f1" d="m15.172 24.08c0.308-0.192 0.601-0.618 0.871-1.278 0.352 0.039 0.621 0.27 0.816 0.696 0.192 0.503 0.348 0.855 0.465 1.046h0.465v-15.285c-0.387 0.039-0.562-0.254-0.523-0.871 0.074-0.816 0.097-1.262 0.058-1.34-0.234 0.043-0.351 0.196-0.351 0.465 0 0.391-0.02 0.68-0.059 0.875-0.23-0.039-0.367-0.215-0.406-0.523-0.039-0.157-0.059-0.426-0.059-0.817-0.387 0-0.519 0.504-0.406 1.516 0.117 1.004-0.039 1.527-0.465 1.566v0.871c0 4.457-0.289 8.235-0.871 11.336 0.039 0.235-0.117 0.387-0.465 0.465-0.039 0.352 0.059 0.621 0.289 0.813 0.352 0.156 0.563 0.312 0.641 0.465z" inkscape:connector-curvature="0"/>
      <path id="path76" style="fill-rule:evenodd;fill:#dcba5d" d="m17.031 26.173c0.117-0.191 0.371-0.445 0.758-0.754-0.351-0.117-0.508-0.41-0.465-0.871-0.117-0.195-0.273-0.543-0.465-1.047-0.195-0.425-0.464-0.66-0.816-0.699-0.27 0.66-0.563 1.086-0.871 1.278-0.891 0.273-1.106 0.835-0.641 1.687 0.285 0.547 0.664 0.875 1.137 0.988-0.09 0.071-0.063 0.203 0.086 0.407 0.269 0.464 0.656 0.621 1.16 0.464-0.152-0.582-0.113-1.066 0.117-1.453z" inkscape:connector-curvature="0"/>
      <path id="path78" style="fill-rule:evenodd;fill:#d52d37" d="m12.961 21.931c0.234 0.039 0.469 0.172 0.699 0.406 0.235 0.27 0.426 0.426 0.582 0.465 0.348-0.078 0.504-0.23 0.465-0.465-1.203-0.738-1.684-2.906-1.453-6.507 0.234-3.606 1.008-5.215 2.324-4.829v-0.871c-0.078-2.324 0.078-3.933 0.465-4.824v-2.207c-0.93-0.078-1.531-0.367-1.801-0.871-0.812 6.238-1.238 12.516-1.277 18.832v0.871h-0.004z" inkscape:connector-curvature="0"/>
      <path id="path80" style="fill-rule:evenodd;fill:#9c9797" d="m10.754 23.673c0.308 0 0.601 0.137 0.871 0.407-0.035-0.504 0.098-0.926 0.406-1.278 0.196-0.195 0.504-0.484 0.93-0.871v-0.871c-0.426-0.312-0.676-1.086-0.754-2.324-0.078-1.321-0.269-2.153-0.582-2.5-0.348 0.543-0.484 1.781-0.406 3.719 0.078 1.898-0.078 3.14-0.465 3.718z" inkscape:connector-curvature="0"/>
      <path id="path82" style="fill-rule:evenodd;fill:#7f7576" d="m10.637 7.63c-0.231 0.543-0.192 0.797 0.117 0.758 0.621-1.976 0.91-4.031 0.871-6.16-0.348-0.039-0.617 0.055-0.813 0.289-0.156 0.27-0.308 0.465-0.464 0.582 0 0.309-0.118 0.93-0.352 1.859-0.191 0.735-0.23 1.434-0.113 2.09 0.734-0.152 0.988 0.043 0.754 0.582z" inkscape:connector-curvature="0"/>
      <path id="path84" style="fill-rule:evenodd;fill:#dcd5d2" d="m24.762 13.154c0.039-0.231 0.039-0.602 0-1.106 0.039-0.386 0.195-0.601 0.465-0.64 0 0.195 0.097 0.312 0.293 0.351 0.117 0.039 0.308 0.078 0.582 0.117 0.113-0.543 0.054-1.066-0.176-1.57-0.274-0.582-0.367-1.086-0.289-1.512-0.039-0.273-0.196-0.89-0.469-1.859-0.152-0.852 0-1.395 0.469-1.629-0.078-0.426-0.426-0.734-1.047-0.93-0.699-0.152-1.223-0.289-1.57-0.406 0.503 0.817 0.832 2.305 0.988 4.477 0.191 2.363 0.445 3.933 0.754 4.707z" inkscape:connector-curvature="0"/>
      <path id="path86" style="fill-rule:evenodd;fill:#a90d14" d="m24.762 13.154c-0.309-0.778-0.563-2.344-0.754-4.711-0.156-2.168-0.485-3.66-0.988-4.473-0.309-0.273-0.602-0.41-0.872-0.41-0.273 0.043-0.425 0.254-0.464 0.641 0.039 0.504 0.039 0.875 0 1.105v1.281c0.308 0.504 0.504 1.336 0.582 2.496 0.152 1.59 0.25 2.52 0.289 2.79 0.504 0.039 0.793 0.273 0.871 0.699 0.039 0.386-0.098 0.734-0.406 1.047 0.542-0.157 0.91-0.02 1.105 0.406 0.23 0.543 0.445 0.832 0.641 0.871v-1.742h-0.004z" inkscape:connector-curvature="0"/>
      <path id="path88" style="fill-rule:evenodd;fill:#a90d14" d="m25.633 5.306c-0.465 0.234-0.617 0.777-0.465 1.629 0.273 0.969 0.426 1.586 0.465 1.859 0.312-0.039 0.484-0.386 0.523-1.046 0-0.7 0.117-1.086 0.352-1.161 0.191-0.894-0.098-1.32-0.875-1.281z" inkscape:connector-curvature="0"/>
      <path id="path90" style="fill-rule:evenodd;fill:#9c9797" d="m19.879 4.783c-0.039-0.582 0.137-0.852 0.523-0.813l1.278 1.336c0.043-0.23 0.043-0.601 0-1.105 0.043-0.387 0.195-0.598 0.468-0.641 0.036-0.23-0.117-0.387-0.468-0.461-0.465 0.035-0.754-0.098-0.871-0.41-0.27 0.039-0.504-0.02-0.696-0.172-0.273-0.195-0.465-0.293-0.582-0.293v3.953h0.407c0.039-0.078 0.019-0.539-0.059-1.394z" inkscape:connector-curvature="0"/>
      <path id="path92" style="fill-rule:evenodd;fill:#7f7576" d="m5.523 7.458 0.93-1.281h-0.058c-0.079-0.543-0.29-0.582-0.637-0.117-0.352 0.508-0.43 0.973-0.235 1.398z" inkscape:connector-curvature="0"/>
      <path id="path94" style="fill-rule:evenodd;fill:#fefffd" d="m12.961 32.857c0.117-0.426-0.191-0.734-0.93-0.93-0.773-0.156-1.199 0.02-1.277 0.524 0.156 0.078 0.601 0.191 1.336 0.347 0.465 0.117 0.312 0.293-0.465 0.524 0.078 0.351 0.523 0.484 1.336 0.406v-0.871z" inkscape:connector-curvature="0"/>
      <path id="path96" style="fill-rule:evenodd;fill:#a90d14" d="m9.012 12.279c0.269-2.403 0.562-4.145 0.871-5.231-0.117-0.656-0.078-1.355 0.117-2.09 0.23-0.929 0.348-1.55 0.348-1.859-0.348-0.039-0.618 0.059-0.813 0.289-0.308 0.387-0.484 0.582-0.523 0.582-0.387 3.063-0.813 5.113-1.282 6.16 0 1.047-0.617 4.282-1.859 9.707-0.965 4.149-0.949 6.59 0.059 7.325 0.078-0.157 0.332-0.504 0.758-1.047 0.308-0.387 0.503-0.754 0.582-1.106 0.578-4.031 0.871-6.508 0.871-7.437 0.269-1.047 0.558-2.809 0.871-5.293z" inkscape:connector-curvature="0"/>
      <path id="path98" style="fill-rule:evenodd;fill:#dcba5d" d="m12.09 27.162c0.117-0.039 0.312-0.059 0.582-0.059 0.195-0.078 0.289-0.191 0.289-0.348-0.035-0.386 0.043-0.621 0.234-0.699 0.157-0.078 0.367 0 0.641 0.234 0-0.464 0.078-1.046 0.23-1.746 0-0.464-0.367-0.754-1.105-0.871-0.113 0.231 0 0.582 0.351 1.047 0.231 0.348 0.118 0.582-0.351 0.699-0.113-0.543-0.5-0.777-1.16-0.699-0.813 0.078-1.453-0.137-1.918-0.64-0.039 0.621-0.078 0.949-0.117 0.988-0.118 0.351-0.368 0.465-0.754 0.351-0.039 0.231-0.446 0.407-1.219 0.52-0.66 0.078-0.836 0.484-0.523 1.223 0.425 0.039 0.871-0.098 1.335-0.407 0.309 0.504 0.891 1.219 1.743 2.149-0.27-1.047-0.153-1.977 0.351-2.789 0.543-0.817 1.145-0.891 1.801-0.235-0.699 0.118-1.066 0.524-1.105 1.223 0 0.621 0.234 1.219 0.699 1.801v-1.742h-0.004z" inkscape:connector-curvature="0"/>
      <path id="path100" style="fill-rule:evenodd;fill:#a90d14" d="m10.754 23.673c0.387-0.578 0.543-1.82 0.465-3.718-0.078-1.938 0.058-3.176 0.406-3.719-0.035-1.781 0.117-4.321 0.465-7.613 0.351-3.219 0.484-5.778 0.41-7.676h-0.41c0 0.351-0.02 0.621-0.059 0.816-0.035 0.27-0.172 0.426-0.406 0.465 0.039 2.129-0.25 4.184-0.871 6.16 0.156 1.164 0.058 2.965-0.289 5.406-0.465 2.789-0.797 4.766-0.988 5.93 0.191 0.578 0.132 1.434-0.176 2.555-0.27 0.929-0.211 1.531 0.176 1.801-0.039-0.657 0.25-1.082 0.871-1.278-0.118 0.465 0.019 0.754 0.406 0.871z" inkscape:connector-curvature="0"/>
      <path id="path102" style="fill-rule:evenodd;fill:#e76d73" d="m14.707 22.337c0.582-3.101 0.871-6.879 0.871-11.336-1.316-0.386-2.094 1.223-2.324 4.829-0.231 3.601 0.25 5.769 1.453 6.507z" inkscape:connector-curvature="0"/>
      <path id="path104" style="fill-rule:evenodd;fill:#9c9797" d="m8.141 17.572c0.539-0.039 0.91 0.172 1.101 0.64 0.117 0.27 0.196 0.774 0.235 1.512 0.191-1.164 0.523-3.141 0.988-5.93 0.347-2.441 0.445-4.242 0.289-5.406-0.309 0.039-0.348-0.215-0.117-0.758 0.234-0.539-0.02-0.734-0.754-0.578-0.309 1.082-0.602 2.828-0.871 5.231-0.313 2.48-0.602 4.242-0.871 5.289z" inkscape:connector-curvature="0"/>
      <path id="path106" style="fill-rule:evenodd;fill:#7f7576" d="m12.961 21.06c0.043-6.316 0.469-12.594 1.281-18.832v-1.746h0.93v-0.406c-0.504-0.118-0.988-0.098-1.453 0.058-0.582 0.231-0.989 0.348-1.219 0.348v0.465c0.074 1.898-0.059 4.457-0.41 7.672-0.348 3.293-0.5 5.832-0.461 7.617 0.309 0.347 0.504 1.179 0.578 2.5 0.078 1.238 0.328 2.012 0.754 2.324z" inkscape:connector-curvature="0"/>
      <path id="path108" style="fill-rule:evenodd;fill:#dcd5d2" d="m17.789 9.259v-3.082c-0.117-0.039-0.332-0.269-0.641-0.695-0.234-0.313-0.601-0.371-1.105-0.176-0.387 0.891-0.543 2.5-0.465 4.824 0.426-0.039 0.582-0.562 0.465-1.57s0.019-1.512 0.406-1.512c0 0.387 0.02 0.66 0.059 0.817 0.039 0.308 0.176 0.484 0.406 0.523 0.039-0.195 0.059-0.484 0.059-0.875 0-0.269 0.117-0.426 0.351-0.465 0.039 0.078 0.016 0.524-0.058 1.34-0.039 0.617 0.136 0.91 0.523 0.871z" inkscape:connector-curvature="0"/>
      <path id="path110" style="fill-rule:evenodd;fill:#a90d14" d="m19.531 6.177v-3.949c-0.23 0.039-0.465-0.02-0.695-0.176-0.274-0.156-0.484-0.234-0.641-0.234-0.386 0.117-0.543 0.601-0.465 1.453 0.079 1.203 0.098 1.883 0.059 2.035 0.465-0.504 0.813-0.582 1.047-0.23 0.269 0.539 0.5 0.91 0.695 1.101z" inkscape:connector-curvature="0"/>
      <path id="path112" style="fill-rule:evenodd;fill:#b5b7b5" d="m17.789 5.306c0.039-0.152 0.016-0.832-0.059-2.035-0.078-0.852 0.079-1.336 0.465-1.453-0.156-0.27-0.465-0.481-0.929-0.637-0.543-0.078-0.95-0.156-1.223-0.234v4.359c0.504-0.191 0.875-0.137 1.105 0.176 0.313 0.426 0.524 0.656 0.641 0.695v-0.871z" inkscape:connector-curvature="0"/>
      <path id="path114" style="fill-rule:evenodd;fill:#6e4242" d="m7.148 5.54c0.082 0.153 0.118 0.368 0.118 0.637 0.234-0.078 0.425-0.558 0.582-1.453 0.117-0.695 0.504-0.949 1.164-0.754 0.039 0 0.215-0.195 0.523-0.582 0.192-0.23 0.465-0.328 0.813-0.289 0.156-0.117 0.308-0.309 0.464-0.582 0.196-0.23 0.465-0.328 0.817-0.289 0.23-0.039 0.367-0.195 0.406-0.465 0.035-0.195 0.055-0.465 0.055-0.816-0.582-0.153-1.043-0.039-1.391 0.351-0.429 0.387-0.836 0.563-1.222 0.52l-2.473 3.605c0.047-0.008 0.094 0.032 0.144 0.117z" inkscape:connector-curvature="0"/>
      <path id="path116" style="fill-rule:evenodd;fill:#a90d14" d="m2.906 21.06c0.235 0.387-0.015 1.684-0.754 3.895-0.695 2.05-0.601 3.371 0.289 3.949 0.778-2.672 1.571-6.121 2.383-10.344 0.465-2.363 1.125-5.91 1.977-10.637 0-0.273 0.078-0.562 0.234-0.875 0.195-0.347 0.27-0.636 0.231-0.871 0-0.269-0.036-0.484-0.118-0.64-0.113-0.192-0.23-0.133-0.347 0.175 0 0.352-0.133 0.504-0.406 0.465-1.59 7.246-2.618 11.762-3.083 13.543v0.817c-0.039 0.308-0.171 0.484-0.406 0.523z" inkscape:connector-curvature="0"/>
      <path id="path118" style="fill-rule:evenodd;fill:#a90d14" d="m6.742 6.935c0-0.582 0.332-0.871 0.988-0.871 0.235 0 0.563-0.352 0.989-1.051 0.582-0.926 1.086-1.605 1.511-2.031 0.504-0.504 0.989-0.719 1.454-0.641 0.273 0.078 0.777 0.196 1.511 0.348 0.852 0 1.356 0.293 1.512 0.875l3.371-0.875h3.195l-6.683-2.613c-1.977 0.504-3.293 0.968-3.953 1.394l-5.231 3.371-0.406 3.719 0.871-0.582c0.582-0.426 0.871-0.773 0.871-1.043z" inkscape:connector-curvature="0"/>
      <path id="path120" style="fill-rule:evenodd;fill:#fefffd" d="m16.336 32.392 0.406-0.465c-0.273-1.008-0.738-1.433-1.394-1.277-0.235 1.199 0.093 1.781 0.988 1.742z" inkscape:connector-curvature="0"/>
      <path id="path122" style="fill-rule:evenodd;fill:#fefffd" d="m17.496 35.126 0.293-0.117c-0.117-0.621-0.465-0.851-1.047-0.699-0.078 0.313-0.078 0.641 0 0.988 0.156 0.039 0.406-0.019 0.754-0.172z" inkscape:connector-curvature="0"/>
      <path id="path124" style="fill-rule:evenodd;fill:#fefffd" d="m20.809 32.392 0.464-0.289c0.352-0.504 0.332-0.891-0.058-1.164-0.387-0.309-0.813-0.211-1.277 0.293-0.426 0.5-0.524 0.851-0.29 1.043 0.192 0.195 0.582 0.234 1.161 0.117z" inkscape:connector-curvature="0"/>
      <path id="path126" style="fill-rule:evenodd;fill:#dcba5d" d="m23.426 30.65 0.176 0.117c0.308-0.195 0.386-0.66 0.23-1.398-0.465-0.114-0.754 0.019-0.871 0.41-0.078 0.386 0.078 0.676 0.465 0.871z" inkscape:connector-curvature="0"/>
      <path id="path128" style="fill-rule:evenodd;fill:#dcba5d" d="m20.23 27.861h0.172c0.387-0.156 0.582-0.449 0.582-0.875 0-0.387-0.117-0.754-0.347-1.106-1.086-0.152-1.61 0.157-1.571 0.93 0 0.777 0.387 1.125 1.164 1.051z" inkscape:connector-curvature="0"/>
      <path id="path130" style="fill-rule:evenodd;fill:#dcba5d" d="m17.207 31.056v-0.289c0-0.469-0.059-1.184-0.176-2.152-0.386-0.078-0.734-0.059-1.047 0.058-0.23 0.465-0.214 0.989 0.059 1.567 0.273 0.582 0.66 0.855 1.164 0.816z" inkscape:connector-curvature="0"/>
      <path id="path132" style="fill-rule:evenodd;fill:#dcba5d" d="m9.766 31.232 0.464-0.293c0.079 0.156 0.157 0.254 0.235 0.293 0.074 0.074 0.23 0.074 0.465 0 0.078-0.391 0.078-0.777 0-1.164-0.426-0.078-0.856-0.078-1.282 0-0.074 0.465-0.039 0.851 0.118 1.164z" inkscape:connector-curvature="0"/>
      <path id="path134" style="fill-rule:evenodd;fill:#fefffd" d="m16.625 36.173v0.407c0.273 0.039 0.465-0.059 0.582-0.293 0.078-0.231 0.078-0.485 0-0.754-0.156-0.426-0.602-0.68-1.336-0.754-0.969-0.039-1.301 0.289-0.988 0.984 0.347 0.66 0.929 0.797 1.742 0.41z" inkscape:connector-curvature="0"/>
      <path id="path136" style="fill-rule:evenodd;fill:#fefffd" d="m9.184 33.205h0.058c0.387-0.192 0.543-0.54 0.465-1.043-0.117-0.504-0.387-0.778-0.812-0.817-0.895-0.039-1.184 0.387-0.875 1.281 0.312 0.93 0.699 1.122 1.164 0.579z" inkscape:connector-curvature="0"/>
      <path id="path138" style="fill-rule:evenodd;fill:#fefffd" d="m23.367 33.556 0.293 0.231c0.387 0.039 0.539-0.153 0.465-0.582-0.078-0.387-0.293-0.618-0.641-0.696-0.425-0.039-0.679 0.156-0.754 0.582-0.039 0.426 0.172 0.582 0.637 0.465z" inkscape:connector-curvature="0"/>
      <path id="path140" style="fill-rule:evenodd;fill:#fefffd" d="m18.254 28.556h-0.41c0.312-0.269 0.367-0.695 0.176-1.277-0.231-0.621-0.563-0.758-0.989-0.406-0.191 0.152-0.308 0.48-0.347 0.984s0.039 0.855 0.23 1.047c0.234 0.234 0.524 0.312 0.875 0.234 0.348-0.039 0.504-0.23 0.465-0.582z" inkscape:connector-curvature="0"/>
    </g>
  </g>
<metadata><rdf:RDF><cc:Work><dc:format>image/svg+xml</dc:format><dc:type rdf:resource="http://purl.org/dc/dcmitype/StillImage"/><cc:license rdf:resource="http://creativecommons.org/licenses/publicdomain/"/><dc:publisher><cc:Agent rdf:about="http://openclipart.org/"><dc:title>Openclipart</dc:title></cc:Agent></dc:publisher></cc:Work><cc:License rdf:about="http://creativecommons.org/licenses/publicdomain/"><cc:permits rdf:resource="http://creativecommons.org/ns#Reproduction"/><cc:permits rdf:resource="http://creativecommons.org/ns#Distribution"/><cc:permits rdf:resource="http://creativecommons.org/ns#DerivativeWorks"/></cc:License></rdf:RDF></metadata></svg>
