<?xml version="1.0" encoding="UTF-8" standalone="no"?>
<!-- Created with Inkscape (http://www.inkscape.org/) -->

<svg
   xmlns:dc="http://purl.org/dc/elements/1.1/"
   xmlns:cc="http://creativecommons.org/ns#"
   xmlns:rdf="http://www.w3.org/1999/02/22-rdf-syntax-ns#"
   xmlns:svg="http://www.w3.org/2000/svg"
   xmlns="http://www.w3.org/2000/svg"
   xmlns:sodipodi="http://sodipodi.sourceforge.net/DTD/sodipodi-0.dtd"
   xmlns:inkscape="http://www.inkscape.org/namespaces/inkscape"
   width="59.108315mm"
   height="65.364883mm"
   viewBox="0 0 209.43891 231.60785"
   id="svg2"
   version="1.1"
   inkscape:version="0.91 r13725"
   sodipodi:docname="movie projector.svg">
  <defs
     id="defs4" />
  <sodipodi:namedview
     id="base"
     pagecolor="#ffffff"
     bordercolor="#666666"
     borderopacity="1.0"
     inkscape:pageopacity="0.0"
     inkscape:pageshadow="2"
     inkscape:zoom="1.6980545"
     inkscape:cx="218.2539"
     inkscape:cy="132.55113"
     inkscape:document-units="px"
     inkscape:current-layer="layer1"
     showgrid="false"
     fit-margin-top="0"
     fit-margin-left="0"
     fit-margin-right="0"
     fit-margin-bottom="0"
     inkscape:window-width="1366"
     inkscape:window-height="705"
     inkscape:window-x="-8"
     inkscape:window-y="-8"
     inkscape:window-maximized="1" />
  <metadata
     id="metadata7">
    <rdf:RDF>
      <cc:Work
         rdf:about="">
        <dc:format>image/svg+xml</dc:format>
        <dc:type
           rdf:resource="http://purl.org/dc/dcmitype/StillImage" />
        <dc:title></dc:title>
      </cc:Work>
    </rdf:RDF>
  </metadata>
  <g
     inkscape:label="Layer 1"
     inkscape:groupmode="layer"
     id="layer1"
     transform="translate(36.425678,-513.22077)">
    <path
       style="fill:#ffffff"
       d="m 138.98438,513.22656 c -0.44241,-0.008 -0.8969,-0.008 -1.36329,0.002 -1.06602,0.0225 -2.19685,0.0913 -3.40625,0.20117 -21.18532,1.92433 -31.17054,14.64311 -31.11914,39.64062 l 0.0176,8.63477 -4.984374,4.20312 c -2.7413,2.31149 -6.821669,6.63756 -9.068359,9.61328 l -4.085938,5.41016 2.671875,3.50195 c 1.46867,1.92553 3.358332,3.5 4.201172,3.5 2.1327,0 1.206389,2.14497 -1.332031,3.08399 -3.76113,1.39133 -8.388454,-2.12488 -12.089844,-9.18555 -1.84497,-3.5194 -3.049624,-5.27344 -2.677734,-3.89844 0.37189,1.375 1.752812,4.47019 3.070312,6.87696 1.3175,2.40678 2.396485,4.54428 2.396485,4.75 0,0.20573 -3.142902,0.37304 -6.982422,0.37304 -7.97238,0 -7.154498,1.1196 -9.085938,-12.46093 -0.62276,-4.37884 -2.463493,-11.57884 -4.089843,-16 -4.09576,-11.13408 -4.99016,-15.15182 -4.3125,-19.38672 0.4919,-3.074 0.397334,-3.35376 -0.595703,-1.77149 -1.435131,2.28668 -0.534531,11.56017 1.505859,15.50586 2.53903,4.90993 5.493856,15.45645 7.035156,25.11328 2.11323,13.2403 2.074156,13.61335 -1.589844,14.89063 -1.71318,0.59717 -3.447285,0.88 -3.853515,0.6289 -0.40623,-0.25107 -1.037797,-3.68365 -1.404297,-7.62695 -0.85482,-9.19759 -2.977466,-19.39368 -6.041016,-29.03125 -3.65957,-11.51259 -3.899405,-14.32562 -1.609375,-18.81445 3.85271,-7.55193 12.319773,-5.938 16.876953,3.2168 1.29477,2.60104 3.4214,9.79268 4.72461,15.98242 1.38169,6.56249 2.135624,8.96107 1.808593,5.7539 -0.843129,-8.26849 -3.399665,-19.039 -5.509765,-23.21093 -1.0321,-2.04059 -1.876953,-3.95309 -1.876953,-4.25 0,-1.10707 5.795154,-0.4914 6.802734,0.72265 1.69256,2.03941 4.976001,11.7411 6.269531,18.51953 0.65919,3.4543 1.390477,6.08999 1.623047,5.85743 0.70007,-0.70008 -2.526229,-16.29677 -4.199218,-20.30079 -2.381131,-5.69885 -6.170208,-10.10747 -9.273438,-10.78906 -1.67163,-0.36715 -5.505765,0.22047 -9.515625,1.45899 -7.53888,2.32853 -9.559459,4.46858 -10.443359,11.05859 l -0.556641,4.14258 -14.103516,-0.8418 c -18.57895,-1.11091 -26.1628584,-0.72761 -38.0429684,1.92774 -13.7167596,3.06587 -13.7657096,3.14602 -12.5371096,20.70507 1.4228,20.33459 2.745003,46.16802 4.070313,79.5 1.16169,29.21693 1.251992,30.0522 3.464844,32 5.952358,5.2394 7.0081708,5.75902 13.3320308,6.5625 3.63465,0.4618 9.9843752,1.60862 14.1093752,2.54883 4.59901,1.04826 11.75479,1.71372 18.5,1.7207 10.65658,0.0109 11.22905,-0.10185 18.375,-3.64062 7.38233,-3.65583 9.125,-3.86409 9.125,-1.0918 0,4.74386 7.193145,13.40039 11.134765,13.40039 1.19847,0 1.865235,0.71487 1.865235,2 0,2.38095 0.503521,2.35014 -9.542969,0.58203 -4.42279,-0.77836 -14.54779,-2.35108 -22.5,-3.49609 -7.9522,-1.14501 -17.17644,-2.59745 -20.5,-3.22656 -4.98006,-0.94268 -7.09052,-0.86829 -12,0.41992 -11.94482,3.13422 -40.990311,12.09094 -42.207031,13.01563 -0.6875,0.5225 -1.25,1.79547 -1.25,2.82812 0,1.19186 -0.709286,1.87695 -1.941406,1.87695 -1.067541,0 -2.162424,0.35812 -2.433594,0.79688 -1.19484,1.93328 1.534992,3.16909 10.388672,4.69922 5.21687,0.9016 14.886328,2.76562 21.4863278,4.14258 6.5999999,1.37695 31.3500002,6.24945 55.0000002,10.82617 23.65,4.57673 44.47627,8.36863 46.28125,8.42773 2.04221,0.0668 5.737166,-1.24064 9.781246,-3.46289 11.40638,-6.2679 36.87239,-19.43122 38.74219,-20.02539 2.2474,-0.71416 1.68388,-2.78145 -0.88867,-3.26172 -1.05442,-0.19686 -2.72115,-1.20936 -3.70508,-2.25 -0.98392,-1.04065 -2.61769,-1.89258 -3.6289,-1.89258 -1.01124,0 -2.39735,-0.675 -3.08204,-1.5 -0.68469,-0.825 -1.64039,-1.5 -2.12304,-1.5 -0.48266,0 -0.87696,0.675 -0.87696,1.5 0,3.03882 -2.71947,1.32061 -9.27734,-5.86328 -14.82433,-16.23946 -14.59027,-15.77762 -9.25,-18.32422 l 3.47266,-1.65625 4.03711,4.58789 c 6.01244,6.8305 12.62503,9.76158 21.96289,9.73438 15.56021,-0.0452 25.64002,-8.6429 29.54296,-25.19727 3.68529,-15.63109 -0.60518,-33.68217 -10.3457,-43.51953 -6.43827,-6.50228 -9.43255,-7.75206 -18.36719,-7.66406 l -7.72265,0.0762 -1.45703,-4.58594 c -2.70526,-8.52376 -4.03726,-19.31414 -3.00391,-24.33789 0.53672,-2.60932 0.85587,-2.75086 6.23633,-2.75586 11.68194,-0.0115 18.27543,-4.08405 24.00195,-14.82812 5.01663,-9.41216 6.42771,-17.36596 5.20117,-29.31836 -1.22156,-11.90371 -4.53969,-19.85935 -11.52343,-27.62695 -5.04504,-5.6113 -9.10217,-7.80512 -15.73828,-7.92774 z m -7,1.94922 c 2.32141,-0.0539 4.18306,0.50626 7.46289,2.00781 9.70067,4.44112 15.81994,14.99335 17.83007,30.75 1.11406,8.73273 1.04081,10.17411 -0.90039,17.83985 -3.71413,14.66696 -9.47256,22.76388 -17.84179,25.08789 -13.28861,3.69003 -25.4348,-3.54843 -31.50391,-18.77539 -1.94689,-4.88462 -2.25195,-7.48637 -2.25195,-19.15235 0,-11.80791 0.29261,-14.23713 2.33789,-19.38086 4.13101,-10.38912 11.70237,-16.53801 22.32422,-18.13085 0.94567,-0.14183 1.76916,-0.22814 2.54297,-0.2461 z m -0.58985,7.73438 c -1.74676,-0.0956 -3.64192,1.67974 -4.51953,5.39062 -0.66431,2.80898 -0.4861,4.24896 0.75977,6.15039 3.46432,5.28723 7.94473,1.82701 7.38476,-5.70312 -0.28067,-3.77428 -1.87823,-5.7423 -3.625,-5.83789 z m -12.1875,0.22656 c -0.52108,2.2e-4 -1.31941,0.4855 -1.90039,1.18555 -1.00281,1.20831 -0.8592,1.36288 0.84961,0.91601 1.19672,-0.31295 2.05859,-0.0566 2.05859,0.61328 0,0.63337 1.43893,4.49685 3.19727,8.58594 1.75835,4.0891 3.37161,7.25925 3.58594,7.04492 0.61187,-0.61188 -6.58207,-17.98177 -7.58594,-18.3164 -0.0617,-0.0206 -0.13064,-0.0293 -0.20508,-0.0293 z m 24.20508,2.81836 c -0.74157,-0.0954 -2.19727,1.16753 -2.19727,2.07617 0,0.53923 0.62891,0.40059 1.39844,-0.30859 0.76953,-0.70919 1.24935,-1.4461 1.06641,-1.63868 -0.0704,-0.0741 -0.16164,-0.11527 -0.26758,-0.1289 z m -2.33789,4.36914 c -0.22567,-0.0332 -1.19975,1.44375 -2.35938,3.60937 -1.32529,2.475 -2.41015,4.95 -2.41015,5.5 0,0.55 1.08486,-1.025 2.41015,-3.5 1.32529,-2.475 2.40821,-4.95 2.40821,-5.5 0,-0.0688 -0.0166,-0.10463 -0.0488,-0.10937 z m -75.609376,4.64062 c 2.0625,-0.0175 3.75,0.36572 3.75,0.85157 0,1.57569 -3.857045,1.943 -5.703125,0.54297 -1.61922,-1.22799 -1.426855,-1.36584 1.953125,-1.39454 z m 46.347656,3.21289 c -0.0982,-0.0163 -0.16754,-0.008 -0.20312,0.0273 -0.28097,0.28094 2.10257,2.56333 5.29687,5.07226 5.81339,4.56608 8.65665,5.98553 6.29883,3.14454 -1.83831,-2.21505 -9.92026,-7.9991 -11.39258,-8.24415 z m 27.43359,2.75586 c -0.53273,0 -0.70915,0.675 -0.39257,1.5 0.31659,0.825 0.75063,1.5 0.96679,1.5 0.21615,0 0.39453,-0.675 0.39453,-1.5 0,-0.825 -0.43601,-1.5 -0.96875,-1.5 z m -3.57031,0.69727 c -0.0436,-0.0102 -0.088,-0.008 -0.13281,0.006 -0.11954,0.0365 -0.24324,0.15836 -0.37109,0.36523 -0.42575,0.68886 -0.2705,2.06019 0.3457,3.04688 1.44738,2.31764 1.64351,2.02558 0.97461,-1.45703 -0.23667,-1.2322 -0.51119,-1.88937 -0.81641,-1.96094 z m -21.18359,2.7207 c -0.47184,-0.0113 -0.9123,0.35957 -1.65821,1.10547 -2.52534,2.52535 -2.46422,7.83077 0.125,10.72656 0.8606,0.9625 1.85618,1.75 2.21094,1.75 3.35278,0 4.2542,-9.59603 1.16406,-12.39257 -0.86675,-0.78443 -1.36996,-1.17819 -1.84179,-1.18946 z m 35.51953,1.2461 c -0.94686,0.0605 -2.29379,0.71543 -4.17578,1.81836 -4.18255,2.45114 -4.6211,3.06144 -4.6211,6.43164 0,3.19847 0.4583,3.95324 3.25,5.35937 1.7875,0.90034 4.15,1.54469 5.25,1.43164 1.74358,-0.17919 2.033,-1.03845 2.25782,-6.70508 0.22492,-5.66938 0.0115,-8.11078 -1.58008,-8.32421 -0.11937,-0.016 -0.2456,-0.0204 -0.38086,-0.0117 z m -76.880861,1.45898 c -0.347396,-0.0143 -0.74258,0.0489 -1.103515,0.19336 -0.79773,0.31922 -0.561435,0.55747 0.603515,0.60547 1.05416,0.0434 1.64479,-0.1931 1.3125,-0.52539 -0.16615,-0.16613 -0.465103,-0.25914 -0.8125,-0.27344 z m 60.216801,2.25195 c -0.5958,-0.0647 -1.37393,0.20864 -2.67383,0.78125 -5.37082,2.36584 -5.4361,5.51084 -0.125,6.05469 1.88764,0.19329 3.67047,-0.26505 4.41601,-1.13476 1.56301,-1.8234 1.5586,-2.27136 -0.041,-4.45899 -0.56693,-0.77531 -0.98038,-1.17749 -1.57617,-1.24219 z m -2.04297,1.81641 c 1.02207,0.0495 1.74066,1.08662 1.25976,2.33984 -0.30983,0.80738 -1.19087,1.46875 -1.95703,1.46875 -1.5989,0 -1.88772,-2.57595 -0.39258,-3.5 0.37518,-0.23187 0.74916,-0.32508 1.08985,-0.30859 z m -56.173831,0.93164 c -0.347396,-0.0143 -0.74258,0.0489 -1.103515,0.19336 -0.79773,0.31922 -0.561435,0.55747 0.603515,0.60547 1.05416,0.0434 1.64479,-0.1931 1.3125,-0.52539 -0.16615,-0.16613 -0.465103,-0.25914 -0.8125,-0.27344 z m -26.896484,1.87695 c 0.53887,0 0.980469,1.07721 0.980469,2.39258 0,1.69243 -0.704803,2.56661 -2.408203,2.99414 -1.3239,0.33228 -3.023274,0.84149 -3.777344,1.13086 -1.32445,0.50824 -3.814453,-1.19531 -3.814453,-2.60937 0,-0.72795 7.339571,-3.90821 9.019531,-3.90821 z m -53.6933594,2.63282 c 9.0831647,-0.0512 31.9833714,1.29959 32.8808594,2.18554 0.3896,0.38458 0.336399,1.302 -0.119141,2.03907 -0.68772,1.11276 -3.658126,1.13259 -17.5039059,0.11914 -9.17110989,-0.67124 -16.8807025,-1.01383 -17.1328125,-0.76172 -0.93598,0.93598 31.3612884,3.05032 39.7988284,2.60547 l 8.75,-0.46094 0,2.82031 c 0,2.78093 -0.08474,2.82031 -6,2.82031 -5.03603,0 -6.00575,-0.28116 -6.03125,-1.75 -0.02896,-1.66667 -0.07808,-1.66667 -1.048828,0 -1.13573,1.94993 -3.429862,2.03353 -16.419922,0.59961 -4.4000009,-0.4857 -11.1500004,-1.2144 -15.0000002,-1.61914 l -6.9999998,-0.73633 0.158203,-3.35546 c 0.08764,-1.84624 0.5505636,-3.74783 1.0273436,-4.22461 0.1840669,-0.18407 1.5445101,-0.26944 3.640625,-0.28125 z m 128.0722644,1.47656 c -0.34833,-0.39244 -11.39844,6.93331 -11.39844,7.55664 0,0.92302 1.88212,-0.0106 5.42774,-2.69336 4.77279,-3.61128 5.30663,-3.64908 6.7539,-0.47266 0.6265,1.375 1.52806,2.5 2.00391,2.5 0.70277,0 -1.49601,-5.43603 -2.78711,-6.89062 z M -16.181641,559 c 1.794343,0.0426 4.396485,1.26433 4.396485,2.45312 0,0.81453 -0.588714,1.48047 -1.308594,1.48047 -1.88398,0 -5.317058,-2.70833 -4.486328,-3.53906 0.292442,-0.29244 0.800323,-0.40874 1.398437,-0.39453 z m 92.3125,0.0566 c -0.347396,-0.0143 -0.74258,0.0489 -1.103515,0.19336 -0.79773,0.31922 -0.561435,0.55747 0.603515,0.60547 1.05416,0.0434 1.64479,-0.1931 1.3125,-0.52539 -0.16615,-0.16613 -0.465103,-0.25914 -0.8125,-0.27344 z m -25.90039,0.23047 c 0.890564,0.0298 0.984375,0.68121 0.984375,1.98047 0,1.87089 -0.764601,2.73667 -3.150391,3.56836 -4.10933,1.43252 -4.52337,1.39392 -5.244141,-0.48438 -0.877859,-2.28766 -0.828348,-2.38349 1.644532,-3.30859 3.187745,-1.19253 4.875061,-1.78568 5.765625,-1.75586 z m 89.660151,1.78711 c -0.0942,-0.004 -0.16163,0.0113 -0.19921,0.0488 -0.23815,0.23816 1.91943,2.04189 4.79492,4.00781 5.68735,3.88857 7.70597,4.68761 5.67969,2.24609 -1.48032,-1.78366 -8.86283,-6.24726 -10.2754,-6.30273 z m -155.310542,2.82031 c 1.676008,0.10427 5.039121,1.99085 5.5683595,3.41602 0.43366,1.16781 1.1143789,10.67304 1.5117187,21.12304 0.3973504,10.45 0.8728838,21.475 1.0585938,24.5 0.1857,3.025 0.8229856,16.75 1.4160156,30.5 0.59302,13.75 1.3354875,28.4875 1.6484375,32.75 0.31294,4.2625 0.2003,7.73726 -0.25,7.72266 -2.15682,-0.0701 -6.3191251,-3.65865 -6.3281251,-5.45508 -0.0053,-1.11011 -0.432209,-10.56758 -0.949219,-21.01758 -0.51702,-10.45 -1.23491,-25.75 -1.59375,-34 -0.35884,-8.25 -1.214873,-24.9 -1.902343,-37 -0.68747,-12.1 -1.144315,-22.13455 -1.015625,-22.29882 0.1514,-0.19327 0.449166,-0.2643 0.835937,-0.24024 z m 96.998047,1.38477 c -0.151569,-0.023 -0.255156,0.34222 -0.285156,1.07031 -0.04342,1.05416 0.19309,1.64479 0.52539,1.3125 0.33225,-0.33229 0.36699,-1.19415 0.07813,-1.91602 -0.119707,-0.29915 -0.227417,-0.45302 -0.318359,-0.46679 z m -4.363281,0.7832 c -0.453125,0 -0.90625,0.0703 -1.25,0.20898 -0.6875,0.27741 -0.125,0.50391 1.25,0.50391 1.375,0 1.9375,-0.2265 1.25,-0.50391 -0.34375,-0.1387 -0.796875,-0.20898 -1.25,-0.20898 z m -36.123047,2.87109 0.529297,4.25 c 0.29128,2.3375 0.777048,13.025 1.080078,23.75 0.30302,10.725 1.288383,36.26728 2.189453,56.75977 0.90107,20.49249 1.454649,37.42856 1.230469,37.63672 -0.22418,0.20817 -3.148257,0.68964 -6.498047,1.07031 l -6.089844,0.69336 -0.646484,-16.33008 c -0.35543,-8.98133 -1.089493,-24.88008 -1.632813,-35.33008 -2.49026,-47.89684 -3.064089,-70.86684 -1.787109,-71.67773 0.68575,-0.43545 3.581747,-0.79864 6.435547,-0.80664 l 5.189453,-0.0156 z m 90.123043,1 c -3.52688,0 -5.10524,5.96514 -3.02539,11.43555 0.67571,1.77726 1.7174,2.56445 3.39258,2.56445 2.74177,0 3.63281,-1.62989 3.63281,-6.64843 0,-4.48332 -1.56092,-7.35157 -4,-7.35157 z m 5.59766,0.38868 c -0.26253,0.0463 0.44785,2.45192 2.11719,7.34765 0.98206,2.88015 2.12265,5.243 2.53515,5.25 1.41434,0.0252 0.73979,-2.49275 -2.27148,-8.48633 -1.38447,-2.75562 -2.17667,-4.14735 -2.38086,-4.11132 z m -57.681641,1.73437 c -0.347396,-0.0143 -0.74258,0.0489 -1.103515,0.19336 -0.79773,0.31922 -0.561435,0.55747 0.603515,0.60547 1.05416,0.0434 1.64479,-0.1931 1.3125,-0.52539 -0.16615,-0.16613 -0.465103,-0.25914 -0.8125,-0.27344 z m 44.898441,0.35742 c -0.23969,-0.23969 -1.24439,1.81286 -2.23242,4.56055 -1.43704,3.99623 -1.54993,5.29347 -0.56641,6.47851 0.67624,0.81483 1.96032,1.47119 2.85547,1.45899 1.25294,-0.0171 1.09405,-0.43301 -0.69141,-1.80664 -2.29266,-1.76384 -2.30001,-1.83325 -0.625,-6.01953 0.93196,-2.3292 1.49946,-4.43219 1.25977,-4.67188 z M 5.4453125,573.16797 c 1.3674078,0.009 3.0724369,0.11076 5.1894535,0.28711 7.2495,0.60388 8.62816,0.992 8.36914,2.35156 -0.24557,1.28893 -1.661421,1.65285 -6.800781,1.74805 -7.32859,0.13575 -11.99535625,-0.42522 -11.97265625,-1.4375 0.048525,-2.166 1.11262035,-2.9767 5.21484375,-2.94922 z m 98.0507775,3.84375 c 2.31563,-0.10263 3.35164,2.67967 1.87696,5.04101 -0.6368,1.01968 -1.15821,2.8128 -1.15821,3.98438 0,1.7369 0.46492,2.04084 2.51758,1.64844 3.61626,-0.69129 18.48242,3.1072 18.48242,4.72265 0,0.71644 -2.09501,0.54471 -11.94531,-0.98047 -5.85015,-0.90581 -8.84604,-1.85555 -9.75,-3.09179 -1.53742,-2.10255 -1.74197,-6.40235 -0.30469,-6.40235 1.44685,0 1.2313,-3.74017 -0.25,-4.33789 -0.73512,-0.29663 -0.51637,-0.53758 0.53125,-0.58398 z m -4.818356,1.14258 c 0.779907,-0.0401 1.555716,0.3883 1.933596,1.37304 0.86108,2.24393 -0.003,2.97876 -1.775392,1.50782 -1.107561,-0.91919 -1.55597,-0.89521 -2.00586,0.10742 -0.31876,0.71046 -0.470057,0.39642 -0.335937,-0.69727 0.173261,-1.41292 1.180856,-2.23944 2.183593,-2.29101 z m 3.476566,0.77929 c 0.58246,0 1.06054,0.45 1.06054,1 0,0.55 -0.19886,1 -0.4414,1 -0.24254,0 -0.71868,-0.45 -1.0586,-1 -0.33992,-0.55 -0.143,-1 0.43946,-1 z m -98.326175,3.2461 c 1.3632568,-0.0107 3.310625,0.1055 6.125,0.32226 9.49842,0.73157 11.294085,1.48222 9.296875,3.88867 -0.70403,0.84831 -1.788053,1.48547 -2.408203,1.41407 -18.0589004,-2.07783 -17.23076885,-1.85556 -16.26171888,-4.38086 0.32793751,-0.8546 0.97595218,-1.22638 3.24804688,-1.24414 z m 94.117187,0.85547 c 0.703936,0.0195 1.3483,0.56101 2.332028,1.75976 2.34634,2.85917 2.47149,5.46016 0.36524,7.56641 -1.984498,1.9845 -2.881538,1.97584 -4.910158,-0.0527 -2.08468,-2.08468 -1.611148,-7.31219 0.794922,-8.77343 0.552251,-0.3354 0.995611,-0.51167 1.417968,-0.5 z m 11.105468,0.48046 c 0.73719,-0.0165 1.16406,0.29901 1.16406,0.9043 0,1.43591 -2.45924,2.72045 -3.40234,1.77735 -1.11101,-1.111 -0.60709,-2.02726 1.40234,-2.55274 0.31056,-0.0812 0.59021,-0.12338 0.83594,-0.12891 z m -10.777342,4.41797 c -0.58246,0 -1.058594,0.45 -1.058594,1 0,0.55 0.196913,1 0.439453,1 0.24254,0 0.720627,-0.45 1.060547,-1 0.33992,-0.55 0.141053,-1 -0.441406,-1 z m -11.142579,0.12305 c -0.347396,-0.0143 -0.74258,0.0489 -1.103515,0.19336 -0.79773,0.31922 -0.561435,0.55747 0.603515,0.60547 1.05416,0.0434 1.64479,-0.1931 1.3125,-0.52539 -0.16615,-0.16613 -0.465103,-0.25914 -0.8125,-0.27344 z m -94.1328121,0.10156 c 0.5758012,0.18015 1.5761825,1.87229 2.8984375,5.04297 6.50816,15.60615 9.6077137,22.29362 10.6210937,22.91992 2.35336,1.45445 3.9256219,-1.46069 3.4511719,-6.39843 -0.25308,-2.63385 -0.1712271,-4.78907 0.183594,-4.78907 1.25035,0 6.062318,11.83748 5.455078,13.41993 -0.46842,1.22068 -0.191684,1.44062 1.160156,0.92187 1.24559,-0.47797 1.551671,-0.3203 1.025391,0.53125 -0.41258,0.66756 -0.24394,1.82454 0.375,2.57031 1.51466,1.82506 11.181351,28.65322 10.769531,29.88867 -0.32367,0.97101 -8.722656,-15.75367 -8.722656,-17.36914 0,-0.46472 -0.455419,-1.12689 -1.011719,-1.4707 -1.03838,-0.64175 0.09456,2.48623 6.462891,17.83984 2.01488,4.85776 3.524588,9.53774 3.355468,10.39844 -0.16911,0.86071 -1.649905,-1.62162 -3.291015,-5.51562 -3.11069,-7.381 -4.980995,-9.33512 -2.140625,-2.23633 2.40317,6.00611 2.22761,6.37805 -2.625,5.56445 -13.0702511,-2.19138 -20.75000025,-3.143 -20.75000025,-2.57031 0,0.3564 5.90735625,1.4853 13.12890625,2.50781 l 13.130859,1.85938 2.541016,5.58008 c 2.03777,4.47356 2.630495,7.6129 2.984375,15.83007 0.39019,9.06002 -0.09271,11.59922 -1.869141,9.83594 -0.22917,-0.22747 -4.002878,-0.91066 -8.386718,-1.51953 -4.38384,-0.60887 -8.273812,-1.43673 -8.644532,-1.83789 -0.37071,-0.40116 -1.005686,-2.29476 -1.410156,-4.20899 -0.60891,-2.8817 -0.498139,-3.29259 0.644531,-2.38671 0.75904,0.60174 2.05586,1.09565 2.88086,1.09765 0.825,0.002 3.6375,0.33935 6.25,0.75 4.64548,0.73021 4.75,0.68883 4.75,-1.86718 0,-2.96539 -0.657665,-3.23222 -2.921875,-1.1875 -1.36813,1.23548 -2.678725,1.21241 -9.828125,-0.17383 l -8.2500002,-1.59961 0,-3.21485 c 0,-2.44809 0.4174197,-3.18193 1.75,-3.07617 0.9625,0.0764 2.2968337,1.03867 2.9648437,2.13867 1.1102495,1.82822 1.2175975,1.8449 1.2500005,0.1836 0.02418,-1.23992 0.591236,-1.66541 1.785156,-1.33789 0.9625,0.26404 3.55,0.76874 5.75,1.12109 2.2,0.35235 4.7875,0.87156 5.75,1.1543 1.34574,0.39531 1.75,-0.0784 1.75,-2.05274 0,-2.64453 -0.889622,-3.23084 -2.550782,-1.68164 -1.36345,1.27155 -18.4492182,-1.92288 -18.4492182,-3.44922 0,-0.6688 -0.6992944,-1.15257 -1.5527344,-1.07617 -1.77066,0.15849 -7.4645313,-13.2104 -7.3945313,-17.36133 0.02318,-1.375 -0.1784156,-5.65 -0.4472656,-9.5 -0.26886,-3.85 -0.9684275,-15.55 -1.5546875,-26 -0.58626,-10.45 -1.3144106,-20.9125 -1.6191406,-23.25 -0.37469,-2.87422 -0.2242388,-4.20554 0.3515625,-4.02539 z m 7.96093748,3.81836 c 2.19108002,0.0109 5.95910622,0.3413 11.64062462,0.99219 4.88704,0.55988 9.61204,1.44205 10.5,1.96094 1.25292,0.73216 0.943425,0.91979 -1.384765,0.83789 -8.28837,-0.29158 -22.08405719,-2.01765 -22.9355471,-2.86914 -0.62564,-0.62565 -0.011393,-0.93282 2.17968748,-0.92188 z M 104.08398,593.12695 c 1.00035,-0.005 2.21621,0.086 3.68555,0.26953 5.67467,0.70901 7.8228,2.56002 5.57813,4.80469 -0.84371,0.84371 -1.13282,0.69782 -1.13282,-0.56836 0,-0.935 -0.47808,-1.69922 -1.06054,-1.69922 -0.58249,0 -0.79887,0.41965 -0.48242,0.93164 0.87676,1.41868 -0.49253,1.67303 -5.88086,1.09571 -5.222196,-0.55952 -6.620128,-1.9169 -4.11719,-3.99414 0.67087,-0.55677 1.74291,-0.83153 3.41015,-0.83985 z m -1.86914,1.80664 c -0.55,0 -1,0.45 -1,1 0,0.55 0.45,1 1,1 0.55,0 1,-0.45 1,-1 0,-0.55 -0.45,-1 -1,-1 z m -33.744137,0.0645 c 0.57464,0.0303 0.721157,0.55318 0.339844,1.54687 -0.47563,1.23946 -0.212272,1.44027 1.142578,0.8711 0.96874,-0.40696 2.774219,-0.96013 4.011719,-1.22852 1.89124,-0.41018 2.25,-0.0635 2.25,2.16992 0,1.46138 -0.955024,3.94819 -2.121094,5.52539 -1.67951,2.27166 -1.981065,3.66556 -1.453125,6.70899 1.86954,10.77733 1.792833,11.67559 -1.273437,15.09179 -1.6044,1.7875 -3.186026,3.25 -3.515626,3.25 -1.17565,0 -1.889866,-5.26257 -1.404296,-10.33984 0.27148,-2.83859 0.164759,-7.41016 -0.236328,-10.16016 -0.401083,-2.75 -0.789782,-3.85174 -0.863282,-2.44921 -0.26122,4.98545 -5.132812,7.02449 -5.132812,2.14843 0,-3.25862 1.60763,-5.19922 4.30664,-5.19922 1.26577,0 1.71765,-0.49438 1.34375,-1.46875 -0.30982,-0.80739 -0.0847,-1.76364 0.5,-2.125 0.70714,-0.43704 0.607572,-0.94922 -0.294922,-1.53125 -1.124979,-0.72552 -1.099218,-1.0429 0.144532,-1.85937 0.836752,-0.54929 1.507684,-0.8577 1.984375,-0.9336 0.09931,-0.0158 0.189393,-0.0219 0.271484,-0.0176 z m -5.322265,1.93554 c 1.688889,0 1.237645,4.71979 -0.515626,5.39258 -2.879629,1.10502 -4.417968,0.63258 -4.417968,-1.35742 0,-1.86988 2.647084,-4.03516 4.933594,-4.03516 z m 47.943362,4.0586 c 0.33071,-0.005 0.5829,0.0692 0.74218,0.22851 0.2584,0.2584 -1.53964,1.64832 -3.99609,3.08789 -3.23966,1.89857 -4.79482,3.61233 -5.66211,6.24024 -0.72986,2.2115 -0.82948,3.86861 -0.25586,4.2539 1.85402,1.24531 2.195,4.08821 0.67188,5.61133 -1.76225,1.76225 -3.330976,1.1807 -3.476566,-1.28906 -0.05827,-0.98854 -0.389109,-0.6557 -0.794922,0.80273 -0.990138,3.55846 -3.864466,3.81199 -4.716796,0.41602 -0.70271,-2.79983 1.373514,-5.41016 4.302734,-5.41016 0.71988,0 1.308594,-0.42848 1.308594,-0.95117 0,-0.52269 -2.691169,-1.25481 -5.980469,-1.62695 -3.2893,-0.37214 -5.76485,-1.02654 -5.5,-1.45508 0.26485,-0.42834 1.268509,-0.62465 2.230469,-0.43555 5.39078,1.05968 9.25,1.22955 9.25,0.40625 0,-0.51542 -1.288088,-0.9375 -2.861328,-0.9375 -5.3426,0 -12.138672,-1.26711 -12.138672,-2.26367 0,-0.61334 3.080603,-0.8139 8.064453,-0.52539 7.66399,0.44366 8.241383,0.32744 11.587893,-2.33203 2.91084,-2.31324 5.79153,-3.80023 7.22461,-3.82031 z m -17.93555,0.0195 c 1.34663,0.0682 1.354338,0.15628 0.05859,0.63672 -0.825,0.3059 -2.4,0.96859 -3.5,1.47461 -1.96803,0.90532 -1.968668,0.89551 -0.05859,-0.63477 1.06762,-0.85535 2.64262,-1.51996 3.5,-1.47656 z m -11.544922,0.51758 c 0.430153,0.0201 0.879308,0.0656 1.347656,0.13672 l 3.244141,0.49218 -2.601563,3.0918 c -2.16755,2.57601 -2.520697,3.80682 -2.117187,7.38672 0.40061,3.55417 0.193708,4.29687 -1.201172,4.29687 -0.92732,0 -2.559333,-0.66124 -3.626953,-1.46875 -1.89257,-1.4315 -1.885116,-1.469 0.308594,-1.5 1.2375,-0.0175 2.25,-0.48125 2.25,-1.03125 0,-0.55 -0.852208,-1 -1.892578,-1 -2.32448,0 -3.596245,-4.2198 -2.109375,-6.99804 1.301396,-2.43168 3.387368,-3.54669 6.398437,-3.40625 z m 31.042972,3.63281 c 2.45589,-0.0499 5.55547,0.43562 9.56054,1.45312 3.07811,0.782 3.53602,1.31359 3.79883,4.41016 0.68006,8.01294 -4.21635,12.14712 -6.85156,5.78516 -0.99993,-2.41404 -1.0333,-3.83394 -0.15039,-6.25 1.0632,-2.90946 1.03626,-2.98823 -0.39258,-1.12696 -1.51567,1.97445 -1.49532,6.19139 0.0488,9.75 0.43663,1.00625 0.33476,1.75 -0.24024,1.75 -1.19737,0 -2.21289,-2.39051 -2.21289,-5.20507 0,-1.66115 -0.26728,-1.81886 -1.4375,-0.84766 -0.94616,0.78524 -2.9972,0.96009 -6,0.50976 -4.17354,-0.62585 -4.5625,-0.92401 -4.5625,-3.49804 0,-1.87543 0.91199,-3.53178 2.73633,-4.9668 1.43412,-1.12808 3.24723,-1.71375 5.70313,-1.76367 z m -54.837894,0.002 c 0.557862,-0.0357 0.967285,0.006 1.09375,0.13282 0.25292,0.25291 0.71166,5.57314 1.019532,11.82421 l 0.560546,11.36524 -2.685546,1.22461 c -1.476571,0.67276 -2.823371,1.22265 -2.994141,1.22265 -0.55266,0 -1.595703,-12.11719 -1.595703,-18.53906 0,-5.9023 0.142817,-6.27936 2.617187,-6.90039 0.71995,-0.18069 1.426514,-0.29433 1.984375,-0.33008 z m -39.238281,4.11524 c 0.09094,0.0138 0.198652,0.16765 0.318359,0.46679 0.28891,0.72187 0.25417,1.58373 -0.07813,1.91602 -0.3323,0.33229 -0.56879,-0.25834 -0.52539,-1.3125 0.02999,-0.72809 0.133583,-1.09326 0.285156,-1.07031 z m 104.847655,0.72851 c -0.38863,-0.0114 -0.96976,0.28822 -1.47851,0.80078 -0.98026,0.98762 -0.86466,1.10323 0.56054,0.56055 0.98622,-0.37553 1.54031,-0.9343 1.23242,-1.24219 -0.077,-0.077 -0.18491,-0.11532 -0.31445,-0.11914 z m -102.210936,0.92578 c 0.55,0 1,0.45 1,1 0,0.55 -0.45,1 -1,1 -0.55,0 -1,-0.45 -1,-1 0,-0.55 0.45,-1 1,-1 z m 88.210936,7.17579 c 0.28718,0.019 0.63246,0.0844 1.03906,0.19335 1.2375,0.33164 3.0375,0.60919 4,0.61719 0.9625,0.008 1.75,0.68867 1.75,1.51367 0,0.825 -0.3375,1.42785 -0.75,1.33985 -0.4125,-0.088 -2.2125,-0.34067 -4,-0.5625 -2.09866,-0.26044 -3.25,-0.95402 -3.25,-1.95703 0,-0.8421 0.34941,-1.20172 1.21094,-1.14453 z m -13.599608,0.20703 c -0.358594,0.0159 -0.611328,0.4155 -0.611328,1.05859 0,0.85746 0.45,1.55859 1,1.55859 0.55,0 1,-0.42386 1,-0.9414 0,-0.51754 -0.45,-1.21868 -1,-1.5586 -0.1375,-0.085 -0.269141,-0.12248 -0.388672,-0.11718 z m 9.933598,0.14257 c 0.29062,-0.0602 0.42489,0.19098 0.43164,0.72266 0.0122,0.96176 -1.98855,4.33974 -4.44727,7.50586 -3.320056,4.2753 -4.318772,6.33481 -3.882812,8.00195 0.41692,1.59428 0.148352,2.24414 -0.923828,2.24414 -2.97677,0 -2.545938,-2.96309 1.263672,-8.68359 4.413098,-6.62668 6.686718,-9.61051 7.558598,-9.79102 z m -42.925786,1.47461 c 0.95309,0 1.43878,1.46898 1.56836,4.75 0.20621,5.22109 0.20228,5.16536 1.324218,27 0.54589,10.62388 0.461743,15.25 -0.28125,15.25 -0.586579,0 -1.713596,0.24752 -2.503906,0.55079 -1.20514,0.46244 -1.51765,-2.32003 -1.93164,-17.25 -0.60435,-21.79522 -0.09215,-30.30079 1.824218,-30.30079 z m -49.798828,1.26758 c -0.201444,-0.0636 -0.643227,0.17049 -1.320312,0.73242 -1.7571709,1.45832 -1.9547324,5.28453 -0.419922,8.15235 1.57192,2.93715 2.214069,1.58991 0.761719,-1.59766 -0.95799,-2.10265 -0.96602,-3.12782 -0.03711,-4.61523 1.018919,-1.63156 1.351365,-2.56586 1.015625,-2.67188 z m 94.978514,2.83985 c 0.73613,0.0234 1.07712,0.28444 0.81836,0.70312 -0.33241,0.53784 0.40481,0.97847 1.63867,0.98047 3.24835,0.005 7.65232,0.78319 8.34375,1.47461 0.32789,0.32794 1.27092,0.33681 2.09766,0.0195 0.82674,-0.31725 1.84681,-0.0214 2.26562,0.65625 0.5916,0.95724 1.85118,0.85896 5.64844,-0.43945 8.97062,-3.06734 20.31571,0.092 26.07617,7.26172 7.05649,8.78281 9.71263,18.40331 9.08594,32.92578 -0.38789,8.98868 -0.82415,10.9724 -3.69922,16.8125 -3.15265,6.40396 -8.24011,11.44413 -13.57422,13.44922 -6.16862,2.31878 -12.37622,1.7558 -19.125,-1.73243 -5.0666,-2.61878 -8.33984,-6.40998 -12.03906,-13.94336 -2.68946,-5.47701 -2.83594,-6.47315 -2.83594,-19.27539 0,-15.28495 0.93201,-19.46926 6.01954,-27.02929 1.91446,-2.84489 3.48046,-5.35059 3.48046,-5.57032 0,-0.21973 -1.09397,-0.40039 -2.42968,-0.40039 -1.33572,0 -3.02322,-0.5625 -3.75,-1.25 -1.82403,-1.72543 -6.17528,-1.57002 -7,0.25 -0.48367,1.06736 -0.7,0.83259 -0.75,-0.8164 -0.0575,-1.89484 -0.4574,-2.19622 -2.18946,-1.64649 -1.53069,0.48582 -1.99462,0.29744 -1.67187,-0.68164 0.24565,-0.74522 1.475,-1.50569 2.73047,-1.68945 0.32576,-0.0477 0.614,-0.0664 0.85937,-0.0586 z m -31.216795,0.17773 c 0.951065,-0.0372 1.956814,0.20188 2.988281,0.75391 5.23351,2.80088 5.919757,14.92986 1.029297,18.19531 -0.60517,0.40408 -2.304764,0.742 -3.777344,0.75 -2.81236,0.0161 -6.727533,-3.86237 -6.933593,-6.86914 -0.503035,-7.33998 2.572077,-12.669 6.693359,-12.83008 z m 18.917969,1.71484 c 1.68305,0 1.750258,0.18291 0.892578,2.41797 -0.85742,2.2344 -2.392578,1.96628 -2.392578,-0.41797 0,-1.11111 0.66667,-2 1.5,-2 z m -28.5,4 c 0.55,0 1,0.675 1,1.5 0,0.825 -0.45,1.5 -1,1.5 -0.55,0 -1,-0.675 -1,-1.5 0,-0.825 0.45,-1.5 1,-1.5 z m 44.589846,0 c 2.04413,0 2.88664,2.72049 1.39843,4.51368 -1.67727,2.02102 -2.73342,1.86825 -3.48632,-0.50391 -0.75984,-2.39405 0.0814,-4.00977 2.08789,-4.00977 z m -33.359378,0.0312 c -1.629429,0.0286 -1.627776,0.0894 0.01953,1.04883 2.21279,1.28885 2.23434,3.28042 0.05664,5.04688 -0.93057,0.75484 -1.376187,0.8495 -0.992187,0.20898 0.38401,-0.64052 0.132336,-1.39373 -0.558594,-1.67383 -0.95041,-0.3853 -0.890689,-0.76774 0.244141,-1.57031 1.31199,-0.92785 1.29465,-1.06277 -0.128906,-1.07617 -0.895151,-0.008 -2.199478,0.67343 -2.898438,1.51562 -1.05079,1.26612 -0.940794,1.78061 0.628906,2.96875 2.44821,1.85309 3.857059,1.85679 5.386719,0.0137 1.67611,-2.0196 0.455528,-6.52133 -1.757813,-6.48243 z m 24.539068,0.36719 c 0.50901,0.007 1.3589,0.30129 2.58203,0.86133 2.18672,1.00125 2.65387,1.81573 2.42773,4.23242 -0.33747,3.60652 -3.7793,4.98683 -3.7793,1.51563 0,-1.17648 -0.48747,-3.04726 -1.08203,-4.15821 -0.89788,-1.6777 -0.99682,-2.46347 -0.14843,-2.45117 z m -2.20899,1.60156 c 0.97428,0 1.43945,1.11778 1.43945,3.46485 0,3.68026 -2.02032,5.52251 -5.249996,4.78711 -2.47755,-0.56414 -2.17169,-2.05296 0.5,-2.4336 1.76762,-0.25184 2.208447,-0.90873 2.060547,-3.06836 -0.12408,-1.81169 0.302123,-2.75 1.249999,-2.75 z m 28.80273,1.34571 c -0.15155,-0.023 -0.25515,0.34222 -0.28515,1.07031 -0.0434,1.05416 0.1931,1.64479 0.52539,1.3125 0.33225,-0.33229 0.36701,-1.19415 0.0781,-1.91602 -0.1197,-0.29915 -0.22741,-0.45302 -0.31836,-0.46679 z m 9.68555,0.80664 c -0.40602,0.0109 -0.85315,0.0844 -1.36523,0.21289 -4.20564,1.05555 -4.92766,8.25007 -1.20117,11.97656 2.00956,2.00957 5.45933,0.94078 6.59375,-2.04297 1.37252,-3.61001 1.13177,-5.81862 -0.90821,-8.33789 -1.06023,-1.30933 -1.90107,-1.84131 -3.11914,-1.80859 z m -136.810545,0.3457 c -0.1009134,0.0332 -0.1600314,0.25559 -0.1757812,0.66992 -0.03487,0.91752 0.2451537,2.46955 0.6210937,3.44922 0.37594,0.97968 0.8375738,1.31539 1.0273437,0.7461 0.1897701,-0.56932 -0.088301,-2.12135 -0.6191406,-3.44922 -0.3995312,-0.9994 -0.6853266,-1.47141 -0.8535156,-1.41602 z m 123.568355,0.14844 c -0.42926,0.11086 -1.55895,1.23568 -2.7207,2.73633 l -2.41406,3.11718 2.86133,-2.71875 c 1.57354,-1.49583 2.65989,-2.89996 2.41406,-3.11914 -0.0307,-0.0274 -0.0793,-0.0315 -0.14063,-0.0156 z M 10.214844,635.9336 c -0.550001,0 -1.0000003,0.45 -1.0000002,1 0,0.55 0.4499992,1 1.0000002,1 0.55,0 1,-0.45 1,-1 0,-0.55 -0.45,-1 -1,-1 z m 138.832036,0.15039 c -0.43414,0.0728 -0.83791,0.50279 -1.44141,1.32813 -1.89764,2.59517 -1.7744,4.39037 0.13476,1.96289 1.48352,-1.88628 1.60361,-1.84861 4.25,1.30664 1.49784,1.78585 2.84838,3.248 3,3.25 0.72633,0.008 -2.84714,-5.8122 -4.31835,-7.0332 -0.72595,-0.60247 -1.19088,-0.88723 -1.625,-0.81446 z m -81.498052,1.34961 c 0.42492,0 1.717214,1.65282 2.871094,3.67188 2.00212,3.50329 2.021272,3.82929 0.445312,7.15039 -3.19666,6.73647 -1.929189,10.67773 3.431641,10.67773 1.73715,0 1.917969,0.78451 1.917969,8.31446 l 0,8.31445 -3.535156,1.68555 c -1.94366,0.92686 -3.743663,1.68554 -4,1.68554 -0.256342,0 -0.502173,-2.3625 -0.546876,-5.25 -0.04468,-2.8875 -0.204668,-6.6 -0.355468,-8.25 -0.74521,-8.15368 -0.907036,-28 -0.228516,-28 z m -58.970703,2.8457 c -0.1515693,-0.023 -0.2551565,0.34222 -0.2851562,1.07031 -0.04342,1.05416 0.1930906,1.64479 0.5253906,1.3125 0.33225,-0.33229 0.366995,-1.19415 0.078125,-1.91602 -0.1197075,-0.29914 -0.2274178,-0.45302 -0.3183594,-0.46679 z m 122.800785,0.17382 c -0.28037,-0.0719 0.17229,1.7934 1.48047,5.21876 0.90441,2.36815 1.8203,4.13086 2.03515,3.91601 0.21485,-0.21485 -0.50058,-2.58853 -1.58984,-5.27344 -1.04579,-2.57774 -1.70772,-3.80534 -1.92578,-3.86133 z m -35.390629,0.53126 c 0.318833,0.0223 0.75213,0.12531 1.320313,0.27734 1.32358,0.35414 3.127986,0.6502 4.009766,0.6582 1.33774,0.0114 1.71667,1.93335 2.29492,11.60547 0.49534,8.28533 0.36074,11.99347 -0.47461,13 -0.84137,1.01374 -0.85487,1.4082 -0.0469,1.4082 1.53818,0 1.4262,4.71117 -0.12696,5.33789 -1,0.40351 -1,0.52079 0,0.58399 2.07324,0.13094 1.40545,3.72634 -1,5.38476 l -2.249996,1.55274 2.249996,-0.54688 c 1.64398,-0.39887 2.25,-0.10256 2.25,1.10157 0,0.90641 -0.71286,1.92158 -1.58398,2.25586 -1.11103,0.42634 -1.23713,0.82232 -0.42188,1.32617 1.28672,0.79524 -1.87647,7.67823 -4.20898,9.1582 -1.62075,1.02834 -3.057631,1.08075 -2.613281,0.0957 0.18608,-0.4125 0.987953,-2.4375 1.783203,-4.5 0.79524,-2.0625 1.832707,-3.75 2.304687,-3.75 0.47197,0 0.630251,-0.36937 0.351563,-0.82031 -0.2787,-0.45093 -0.773426,-5.28843 -1.097656,-10.75 -0.65426,-11.02099 -2.136847,-25.29557 -3.160157,-30.41211 -0.472185,-2.36094 -0.536577,-3.03374 0.419922,-2.96679 z m 23.445309,2.01367 c -0.12797,0.0268 -0.19812,0.22472 -0.20312,0.59179 -0.008,0.63629 2.25142,3.05609 5.02344,5.37696 6.14569,5.14546 5.88985,6.2852 -0.41407,1.84179 -2.52708,-1.78125 -4.83708,-2.99689 -5.13281,-2.70117 -0.29572,0.29573 2.28449,2.39953 5.73438,4.67383 6.91439,4.55821 7.24091,4.71282 6.10742,2.90234 -0.43042,-0.6875 -0.7941,-1.7107 -0.8086,-2.27343 -0.0145,-0.56273 -2.05039,-2.81273 -4.52539,-5 -2.475,-2.18727 -4.83029,-4.42657 -5.23437,-4.97657 -0.23312,-0.3173 -0.4189,-0.46232 -0.54688,-0.43554 z M 3.578125,644.2793 c -0.1515693,-0.023 -0.2551564,0.34222 -0.2851562,1.07031 -0.04342,1.05416 0.1930906,1.64479 0.5253906,1.3125 0.33225,-0.33229 0.366995,-1.19415 0.078125,-1.91602 -0.1197075,-0.29914 -0.2274178,-0.45302 -0.3183594,-0.46679 z m 70.787109,0.65429 c 0.42919,0 1.071905,2.19463 1.427735,4.87696 0.54934,4.14114 0.930483,4.80193 2.533203,4.38281 1.03812,-0.27148 1.888672,0.009 1.888672,0.62305 0,0.61415 -1.33836,1.11718 -2.97461,1.11718 -2.77222,0 -2.9341,-0.20448 -2.375,-3 0.3983,-1.99149 0.19779,-3 -0.59375,-3 -0.71105,0 -0.950773,0.75823 -0.595703,1.87696 0.42406,1.33612 0.0108,2.02853 -1.433593,2.40625 -1.309881,0.34254 -2.027344,0.0427 -2.027344,-0.84375 0,-1.92192 3.20523,-8.43946 4.15039,-8.43946 z m -76.7812496,0.10352 c -0.2270721,-0.0804 -0.1438625,0.2987 0.1953125,1.18945 0.37553,0.98622 0.9342975,1.54227 1.24218748,1.23438 0.30788999,-0.30789 -1.7368e-4,-1.11463 -0.68359378,-1.79297 -0.3703575,-0.3676 -0.617663,-0.58262 -0.7539062,-0.63086 z m 158.5175756,4.9375 c -0.33687,-0.0223 -2.31046,1.30898 -4.38672,2.95898 -2.07626,1.65 -3.35851,3 -2.84961,3 1.03753,0 8.1965,-5.89528 7.23633,-5.95898 z m -12.37695,4.33789 c -0.12502,-0.0189 -0.22617,0.004 -0.29492,0.0723 -0.275,0.275 0.0784,1.19724 0.78515,2.04882 0.70675,0.85158 1.51016,1.32383 1.78516,1.04883 0.275,-0.275 -0.0784,-1.19725 -0.78516,-2.04883 -0.53006,-0.63868 -1.11517,-1.06451 -1.49023,-1.12109 z m 14.16016,0.0371 c -0.84673,0.0281 -2.99244,1.08535 -5.16211,2.57812 -4.05599,2.7906 -4.50782,3.49678 -4.50782,7.03907 0,3.44665 0.4674,4.24293 3.75,6.39258 5.65061,3.70033 7.00729,3.36581 7.80078,-1.92579 0.75492,-5.03412 -0.17106,-13.14715 -1.60156,-14.03125 -0.0642,-0.0397 -0.15833,-0.0567 -0.27929,-0.0527 z m -35.75782,0.58398 c -3.69869,0 -5.27453,7.61003 -2.41992,11.68555 3.02173,4.31412 8.15877,-0.30603 7.0625,-6.35156 -0.59895,-3.30299 -2.36664,-5.33399 -4.64258,-5.33399 z m 18.03516,3.15039 c -0.65103,-0.0188 -1.57328,0.39251 -3.31445,1.21875 -3.7783,1.79292 -5.16028,5.63086 -2.02735,5.63086 0.98104,0 1.3948,-0.55668 1.06055,-1.42773 -0.30115,-0.78478 0.12321,-1.9834 0.94336,-2.66406 1.23301,-1.02331 1.58861,-0.86201 2.05664,0.92773 0.31131,1.19045 1.01908,2.16406 1.57226,2.16406 0.55321,0 0.38767,0.74902 -0.36718,1.66407 -1.24448,1.5086 -1.16132,1.55196 0.8789,0.46484 2.55368,-1.36072 2.8883,-3.87257 0.88282,-6.61523 -0.6547,-0.89535 -1.03452,-1.34451 -1.68555,-1.36329 z m -50.248048,0.88477 c 0.989813,0.0195 2.925782,0.68219 4.300782,1.47266 2.36364,1.35881 2.23753,1.40423 -2.28711,0.82421 -4.11264,-0.52718 -5.13223,-0.28836 -7.25,1.70118 -2.01976,1.89746 -2.46289,2.01722 -2.46289,0.66601 0,-1.79919 4.822581,-4.72066 7.699218,-4.66406 z m -92.7792964,0.96484 c 0.5063,0 1.2246629,1.38294 1.5957032,3.07227 0.9222198,4.19884 -0.029431,4.76281 -1.4003907,0.83008 -1.34796,-3.86672 -1.3499425,-3.90235 -0.1953125,-3.90235 z m 104.4960944,1.45508 c -0.0773,-0.0155 -0.17499,-0.0156 -0.29297,0.002 -0.1573,0.0235 -0.34976,0.0767 -0.57227,0.16211 -0.85355,0.32755 -1.550776,0.77213 -1.550776,0.98829 0,0.80991 1.904926,0.3545 2.492186,-0.59571 0.19707,-0.31885 0.15563,-0.51017 -0.0762,-0.55664 z m -16.117188,3.81641 c 0.916316,0.0709 2.050929,0.64756 3.066406,1.60156 1.24497,1.16958 2.973587,2.12695 3.841797,2.12695 1.70943,0 3.145984,2.61847 2.240234,4.08399 -0.98386,1.59192 -4.298189,2.96622 -4.880859,2.02344 -0.30522,-0.49386 0.145243,-1.16736 1.001953,-1.4961 0.8567,-0.32875 1.290361,-1.03071 0.962891,-1.56054 -0.32748,-0.52989 -1.257063,-0.71022 -2.064453,-0.4004 -0.89835,0.34473 -1.466797,-0.0337 -1.466797,-0.9746 0,-0.8456 -0.977455,-1.67972 -2.171875,-1.85547 -2.69349,-0.39633 -3.564458,-2.5999 -1.361328,-3.44532 0.244355,-0.0938 0.526592,-0.12713 0.832031,-0.10351 z m -20.337891,3.05859 c 1.440061,0.0565 1.846476,2.21431 1.962891,7.91992 0.08795,4.31057 0.669775,4.47618 6.259766,1.77539 2.248238,-1.08623 4.534991,-1.69941 5.082031,-1.36132 0.9564,0.59109 0.255614,14.14672 -0.785157,15.1875 -0.818409,0.8184 -4.250457,-2.88185 -5.523437,-5.95508 -0.67428,-1.62787 -1.443111,-2.7444 -1.707031,-2.48047 -0.26393,0.26393 0.517568,2.53902 1.736328,5.05664 1.8888,3.90175 2.017184,4.81895 0.865234,6.21289 -1.22684,1.48457 -1.149953,1.50982 0.841797,0.26953 1.88398,-1.17317 2.44929,-1.14618 4,0.19336 0.99327,0.858 3.264365,2.18318 5.046875,2.94531 2.65904,1.13691 2.92836,1.51038 1.5,2.07618 -3.5357,1.40057 -10.4422,0.21273 -14.40625,-2.47852 -3.03091,-2.05774 -5.135328,-6.71173 -6.642578,-14.69141 -2.2166,-11.735 -2.219158,-12.91541 -0.04297,-14.08007 0.737413,-0.39465 1.33248,-0.60867 1.8125,-0.58985 z m 65.046879,0.12891 c -0.96217,0.0345 -2.52922,0.78395 -5.82422,2.44726 -3.40159,1.71712 -6.1836,3.34034 -6.1836,3.60743 0,0.97133 1.60228,0.39452 6.70313,-2.41797 l 5.20312,-2.86914 1.49414,2.13672 c 0.82195,1.17529 1.51808,1.6605 1.54688,1.07812 0.0288,-0.58238 -0.54026,-1.8681 -1.26367,-2.85742 -0.54503,-0.74536 -0.92744,-1.15185 -1.67578,-1.125 z m 15.5664,1.68945 c -0.0397,0.003 -0.0696,0.0129 -0.0879,0.0312 -0.2445,0.24451 2.35927,2.32415 5.78516,4.6211 6.81914,4.57191 6.73135,4.52746 6.71875,3.44921 -0.011,-0.94063 -11.1851,-8.18236 -12.41602,-8.10156 z m -50.556638,4.91016 c 0.228288,0.0214 0.530974,0.16242 0.916016,0.40039 0.58659,0.36254 1.066406,1.73093 1.066406,3.04101 0,3.68892 -1.716549,3.87073 -2.269532,0.24024 -0.415852,-2.73018 -0.397756,-3.74592 0.28711,-3.68164 z m 40.898438,0.0644 c -0.3474,-0.0143 -0.74258,0.0489 -1.10352,0.19336 -0.79773,0.31922 -0.56143,0.55747 0.60352,0.60547 1.05416,0.0434 1.64479,-0.1931 1.3125,-0.52539 -0.16615,-0.16613 -0.4651,-0.25914 -0.8125,-0.27344 z m -2.66602,3.32422 c -0.0494,0.0168 -0.1121,0.0603 -0.18945,0.13476 -1.58277,1.52261 -5.09275,11.05374 -4.3457,11.80079 1.22024,1.22024 1.78527,0.5713 1.85937,-2.13282 0.0415,-1.5125 0.8717,-4.55 1.84375,-6.75 0.85056,-1.925 1.178,-3.17017 0.83203,-3.05273 z m 5.62891,0.54687 c -0.95284,0.0399 -1.90418,0.42957 -2.67969,1.20508 -1.55432,1.55432 -1.55432,9.04724 0,10.60157 2.06802,2.06802 5.39176,1.39331 6.64063,-1.34766 0.63829,-1.40088 1.16015,-3.17989 1.16015,-3.95313 0,-0.77324 -0.52186,-2.55224 -1.16015,-3.95312 -0.78055,-1.71311 -2.37287,-2.61923 -3.96094,-2.55274 z m 6.55078,0.27344 c -0.0236,0.003 -0.045,0.0136 -0.0644,0.0332 -0.31335,0.31335 0.18804,2.84913 1.11328,5.63476 0.92524,2.78563 2.12678,5.06445 2.67187,5.06445 1.17226,0 3.84961,-2.52354 3.84961,-3.6289 0,-0.42429 -0.54117,-0.23032 -1.20117,0.42969 -2.16339,2.16339 -3.36675,1.26889 -4.625,-3.43555 -0.59653,-2.23036 -1.29288,-3.90895 -1.66797,-4.08399 -0.0268,-0.0125 -0.0526,-0.0168 -0.0762,-0.0137 z M 8.8144531,682.33398 c 0.3238364,0.0481 0.8392387,0.80509 1.3144529,2.00196 0.63362,1.59581 0.965781,3.39581 0.738282,4 -0.227511,0.60418 -0.9327866,-0.20887 -1.5664068,-1.80469 -0.6336197,-1.59581 -0.9657812,-3.39581 -0.7382812,-4 0.056878,-0.15105 0.1440077,-0.2133 0.2519531,-0.19727 z m -4.5234375,19.59961 c 0.50812,0 0.9238282,3.825 0.9238282,8.5 0,7.44322 -0.5560144,9.59926 -2.0839844,8.08789 -0.83772,-0.82861 0.2645162,-16.58789 1.1601562,-16.58789 z m 3.390625,0.30079 c 0.2891701,-0.0357 0.4007907,1.76019 0.4472656,5.94921 0.04727,4.2625 -0.1390625,7.75 -0.4140624,7.75 -0.6461801,0 -0.5991388,0.23302 -1.0429688,-5.06836 -0.21034,-2.51236 0.012201,-5.88736 0.4941406,-7.5 0.2152907,-0.72038 0.3841841,-1.11462 0.515625,-1.13085 z m -21.2734376,4.97265 c 1.788686,-0.10769 1.816909,0.83215 1.837891,2.97656 0.02882,2.94487 0.157952,3.08337 1.382812,1.46875 1.2631209,-1.66504 1.3925434,-1.61997 1.9707034,0.6836 0.3403,1.3559 1.5184675,2.74893 2.6171875,3.09765 1.09873,0.34872 1.9980468,0.99625 1.9980469,1.4375 0,0.71461 -5.0508394,-0.0422 -18.8300778,-2.82226 -2.3812,-0.48044 -3.9562,-0.51928 -3.5,-0.0859 0.4562,0.43329 6.230078,1.74602 12.830078,2.91797 6.5999991,1.17195 13.5749996,2.52127 15.4999998,2.99805 1.9249998,0.47679 10.2500002,2.0774 18.5000002,3.55664 8.25,1.47924 22.65,4.19754 32,6.04101 30.20836,5.95596 40.521007,7.54295 44.341797,6.82617 2.00229,-0.37563 12.318589,-4.95029 22.925779,-10.16601 10.60719,-5.21573 19.61212,-9.1322 20.00977,-8.70508 0.39766,0.42712 0.27265,0.9533 -0.27735,1.16992 -0.55,0.21661 -9.5449,4.76769 -19.98828,10.11328 -12.66839,6.48449 -19.1034,10.31844 -19.33398,11.52149 -0.28547,1.4895 1.10438,1.08 7.98828,-2.35352 10.06516,-5.02026 9.28585,-3.71321 -1.16602,1.95508 -8.370534,4.53954 -11.999996,5.19485 -11.999996,2.16406 0,-2.23095 -0.98376,-2.61316 -10.5,-4.0625 -7.05198,-1.07403 -26.31478,-4.65218 -54,-10.0332 -8.25,-1.60351 -24.4500005,-4.75393 -36.0000002,-7 -25.9763298,-5.05147 -24.6861138,-4.66537 -24.3085938,-7.28125 0.24832,-1.72057 1.767794,-2.56471 7.808594,-4.33984 4.34665,-1.27729 6.802159,-1.99437 8.193359,-2.07813 z m 92.035156,3.12891 c 3.575593,-0.0778 8.409057,0.46604 16.019532,1.51172 22.559579,3.09968 28.751949,4.17715 28.751949,5.0039 0,0.39233 -2.3714,1.69723 -5.26953,2.89844 -2.89813,1.2012 -6.38563,2.13452 -7.75,2.07422 -2.98183,-0.1317 -15.957096,-2.11892 -28.980466,-4.4375 -5.225,-0.93021 -11.020398,-1.68087 -12.878906,-1.66797 l -3.378907,0.0234 2.689453,-1.76367 c 3.679994,-2.41405 6.199685,-3.54261 10.796875,-3.64258 z m -111.675781,7.70898 c 0.22065,-0.0173 0.535356,-0.0136 0.947266,0.004 1.1,0.0464 3.125,0.44441 4.5,0.88476 2.44987,0.78459 2.43984,0.80207 -0.5,0.88477 -1.65,0.0464 -3.675,-0.35161 -4.5,-0.88477 -0.926798,-0.59895 -1.109214,-0.83671 -0.447266,-0.88867 z m 103.435547,0.006 c 1.734716,-0.0733 1.913477,0.73675 2.498047,5.77344 0.38319,3.30163 0.40493,6.4773 0.04687,7.05664 -0.65521,1.06015 -1.667481,1.10728 -6.863281,0.32812 -2.02301,-0.30337 -2.66381,-0.85328 -2.25,-1.93164 0.31822,-0.82928 0.593828,-2.48326 0.611328,-3.67578 0.03062,-2.08732 0.0842,-2.09815 1.451172,-0.29297 1.29,1.70349 1.40203,1.47463 1.21875,-2.5 -0.18664,-4.04741 -0.0038,-4.39827 2.443359,-4.68164 0.317069,-0.0367 0.595933,-0.0657 0.84375,-0.0762 z m 72.951175,0.88281 c 0.58246,0 1.06054,0.45 1.06054,1 0,0.55 -0.19886,1 -0.4414,1 -0.24254,0 -0.71868,-0.45 -1.0586,-1 -0.33992,-0.55 -0.143,-1 0.43946,-1 z m -34.02344,4.12305 c 0.3474,0.0143 0.64635,0.10729 0.8125,0.27344 0.33229,0.33229 -0.25834,0.56879 -1.3125,0.52539 -1.16495,-0.048 -1.40125,-0.28625 -0.60352,-0.60547 0.36094,-0.14446 0.75612,-0.20766 1.10352,-0.19336 z m -91.416016,5.01758 c 1.1,0 2.9,0.38668 4,0.85937 2,0.85943 2,0.85938 0,0.85938 -1.1,0 -2.9,-0.38669 -4,-0.85938 -2,-0.85943 -2,-0.85937 0,-0.85937 z m 8,2 5,0.55859 c 2.75,0.30684 5.186845,0.72516 5.416015,0.92969 1.13599,1.01386 -0.903685,0.93135 -5.416015,-0.2168 l -5,-1.27148 z m 13.416015,1.98242 c 0.347397,0.0143 0.64635,0.10729 0.8125,0.27344 0.33229,0.33229 -0.25834,0.56879 -1.3125,0.52539 -1.16495,-0.048 -1.401245,-0.28625 -0.603515,-0.60547 0.360935,-0.14446 0.756119,-0.20766 1.103515,-0.19336 z m 4.583985,1.0957 c 1.65,-0.0102 4.125,0.3409 5.5,0.78125 l 2.5,0.80079 -2.5,-0.0195 c -1.375,-0.0102 -3.85,-0.3614 -5.5,-0.78125 l -3,-0.76367 3,-0.0176 z m 10.5,2 c 1.375,-0.0102 3.625,0.3409 5,0.78125 1.95899,0.62738 2.0672,0.79585 0.5,0.78125 -1.1,-0.0102 -3.35,-0.3614 -5,-0.78125 -2.69472,-0.68571 -2.7456,-0.76455 -0.5,-0.78125 z m 11.25,1.88086 c 0.166666,-0.0121 0.416667,-0.003 0.75,0.0156 0.825,0.0464 2.625,0.44441 4,0.88476 l 2.5,0.80079 -2.5,0.084 c -1.375,0.0464 -3.175,-0.35161 -4,-0.88477 -0.999998,-0.64628 -1.249999,-0.86399 -0.75,-0.90039 z m 9.75,2.0293 c 0.453125,0 0.90625,0.0703 1.25,0.20898 0.6875,0.27741 0.125,0.50391 -1.25,0.50391 -1.375,0 -1.9375,-0.2265 -1.25,-0.50391 0.34375,-0.1387 0.796875,-0.20898 1.25,-0.20898 z m 11.916015,1.99414 c 0.347397,0.0143 0.64635,0.10729 0.8125,0.27344 0.33229,0.33229 -0.25834,0.56879 -1.3125,0.52539 -1.16495,-0.048 -1.401245,-0.28625 -0.603515,-0.60547 0.360935,-0.14446 0.756119,-0.20766 1.103515,-0.19336 z"
       id="path4147"
       inkscape:connector-curvature="0" />
  </g>
</svg>
